<svg width="171" height="238" viewBox="0 0 171 238" fill="none" xmlns="http://www.w3.org/2000/svg">
<path d="M113.196 42.8864C114.305 43.1636 116.62 46.7061 117.435 47.5106C122.592 52.6054 129.413 57.536 131.77 64.7357C133.881 71.1885 130.025 88.6111 124.332 93.8297C120.11 97.6999 128.278 98.3768 130.344 98.3768C134.677 98.3768 149.264 93.3497 149.264 99.2631C149.264 107.005 150.652 114.461 150.652 122.114C150.652 126.755 145.389 131.187 142.251 134.214C132.507 143.615 121.425 150.778 108.186 152.326C93.7464 154.014 78.4012 155.548 64.7186 149.359C60.6468 147.517 56.318 145.653 56.318 141.035C56.318 132.407 48.5939 125.133 47.2622 117.143C46.4505 112.273 29.1703 119.584 25.2587 112.249C20.9467 104.164 15.1953 90.5258 22.8696 82.5774C27.0265 78.272 32.664 81.0008 36.8963 83.1169" stroke="black" stroke-width="3" stroke-linecap="round"/>
<path d="M66.7223 34.5628C65.4404 31.6784 56.7463 33.7674 55.0077 33.9848C43.2063 35.4599 32.7059 37.0036 22.33 43.0405C7.27915 51.7973 -0.968973 67.0302 2.9854 84.5427C5.61491 96.1879 13.9006 104.385 17.0121 115.795C20.5331 128.705 16.8379 142.766 20.5959 155.293C21.189 157.27 20.8866 162.222 24.064 160.457C26.0298 159.365 30.0027 159.954 31.8096 160.958C38.2051 164.511 50.8635 166.305 57.7051 162.884" stroke="black" stroke-width="3" stroke-linecap="round"/>
<path d="M63.9478 35.2564C79.5987 34.1385 90.3727 22.1253 105.373 19.8039C115.452 18.244 126.847 23.3859 136.085 26.9329C142.05 29.223 148.457 32.8373 152.578 37.7997C161.873 48.9917 154.5 62.802 149.996 74.0612C148.663 77.3943 149.958 79.8093 149.958 83.1169" stroke="black" stroke-width="3" stroke-linecap="round"/>
<path d="M139.554 149.012C141.262 149.202 142.771 151.992 144.563 152.788C146.677 153.728 150.652 155.372 150.652 158.068C150.652 165.255 136.743 168.443 131.23 169.821" stroke="black" stroke-width="3" stroke-linecap="round"/>
<path d="M68.1098 155.255C61.4055 165.903 56.5741 184.76 57.397 197.104C58.0772 207.306 61.8671 217.449 61.8671 227.7C61.8671 235.313 77.7832 235.88 83.3696 235.716C95.014 235.373 88.9187 219.915 88.9187 213.905C88.9187 207.088 92.2431 211.929 93.7741 215.986C94.5868 218.139 102.617 231.382 105.026 231.554C109.497 231.873 124.294 235.008 124.294 226.352C124.294 221.633 124.323 221.205 120.98 217.527C117.805 214.035 116.973 210.593 115.431 206.429C112.319 198.028 114.13 188.802 111.462 180.264C109.717 174.68 108.372 161.435 111.115 155.948" stroke="black" stroke-width="3" stroke-linecap="round"/>
<path d="M113.889 155.255C117.538 155.863 119.643 163.075 121.365 165.736C124.548 170.655 128.96 174.972 134.814 176.372C143.736 178.505 152.949 179.532 162.096 179.532C165.817 179.532 166.556 179.184 167.607 183.077C168.48 186.311 170.377 194.774 168.532 198.26C164.121 206.59 141.796 197.638 135.777 196.179C127.191 194.097 120.954 189.791 113.889 185.081" stroke="black" stroke-width="3" stroke-linecap="round"/>
<path d="M61.8669 151.093C58.3946 151.864 58.5887 168.234 57.7822 171.439C55.3796 180.986 50.8409 187.766 44.6802 195.1C41.868 198.448 39.2422 203.803 42.4837 207.585C46.1606 211.875 56.511 207.652 59.786 205.196" stroke="black" stroke-width="3" stroke-linecap="round"/>
<path d="M114.537 92.3229C115.037 92.073 115.378 91.3203 115.728 90.9113C117.211 89.1813 118.928 87.6677 120.413 85.9354C121.523 84.6404 122.506 83.2794 123.43 81.8506C123.74 81.3723 123.977 81.0191 124.577 81.0566C128.037 81.2728 131.731 82.2166 135.067 80.6596C136.367 80.0532 132.386 81.7013 131.132 82.3976C130.7 82.6379 129.058 81.8074 128.547 81.6918C127.816 81.5262 125.722 80.9139 125.195 81.78C124.37 83.1352 124.5 85.3923 124.03 86.9235C123.429 88.8856 123.417 90.9488 122.795 92.8875C122.386 94.1637 122.492 92.622 122.442 91.9523C122.36 90.8312 121.87 87.5516 122.319 88.5822C122.896 89.9074 122.548 91.5517 122.636 92.9581C122.766 95.0247 123.192 88.8499 123.307 86.7824C123.378 85.5104 122.892 81.9048 123.589 82.9711C124.359 84.1482 123.902 86.4084 123.748 87.7176" stroke="black" stroke-width="3" stroke-linecap="round"/>
<path d="M95.0044 91.8464C94.81 91.1982 93.3216 90.6777 92.8253 90.3907C91.0835 89.3834 89.3623 88.4365 87.5847 87.4969C86.5922 86.9723 83.6242 84.6883 82.3883 85.8118C82.0531 86.1165 81.8844 86.5274 81.5678 86.844C80.5132 87.8986 78.9212 88.5198 77.6065 89.1555C75.5076 90.1704 73.4831 91.2111 71.1044 91.2111C70.6573 91.2111 71.6205 91.1266 71.7131 91.0965C73.3922 90.5508 75.0804 89.6526 76.6007 88.7761C78.1509 87.8825 79.1694 86.8455 80.3679 85.5471C80.7097 85.1768 80.9688 85.0867 81.2678 85.4854C81.8947 86.3212 82.7396 86.9652 83.3146 87.8498C83.7784 88.5632 83.8881 90.5983 83.8881 91.4405C83.8881 91.6278 84.0769 89.2996 84.241 88.935C84.7068 87.8999 84.81 91.1411 84.9292 92.2698C85.0595 93.5042 84.9312 94.7409 84.9997 95.9753C85.0386 96.6742 85.0774 94.5664 84.9644 93.8755C84.734 92.4662 84.134 91.3257 83.6411 90.0113C83.2131 88.8699 83.7653 90.3975 83.8881 90.7524C84.2275 91.7328 84.6592 92.7336 84.6821 93.7873C84.7061 94.8892 84.655 93.3832 84.6115 93.0992C84.5229 92.5202 84.417 90.8029 83.9234 90.3642C83.3836 89.8843 83.9935 91.8166 84.1704 92.5169C84.4081 93.4576 84.6075 94.4421 84.8056 95.393C85.0099 96.3735 84.8144 95.0334 84.7703 94.7225C84.5576 93.2205 84.3861 91.6289 84.0469 90.1525C83.7384 88.8096 84.1899 91.1623 84.2057 91.37C84.3581 93.3777 84.4051 95.3945 84.5233 97.4045" stroke="black" stroke-width="3" stroke-linecap="round"/>
<path d="M114.696 125.672C114.764 126.826 117.408 130.552 118.79 130.524C120.415 130.491 122.435 127.799 123.386 126.722C124.491 125.47 125.855 124.077 126.448 122.496" stroke="black" stroke-width="3" stroke-linecap="round"/>
<path d="M64.725 39.2856C68.4284 41.4019 71.7007 46.2076 73.7874 49.7656C77.919 56.8103 77.8912 66.8924 73.8127 73.9403C69.0696 82.1366 61.5356 84.9914 52.3465 85.7872C46.5333 86.2906 40.7637 85.4002 35.5635 82.8001" stroke="black" stroke-width="3" stroke-linecap="round"/>
<path d="M65.8641 29.717C65.38 27.7806 64.0641 25.5954 63.3074 23.7176C62.9362 22.7966 61.2043 17.9025 59.4977 18.5283C56.8708 19.4915 59.7152 25.8236 60.2571 27.173C60.5468 27.8944 62.559 33.6661 63.3327 31.8434C66.1302 25.2526 68.2078 18.9599 72.1166 12.858C73.6653 10.4404 78.6076 0.99866 82.9003 2.08695C89.935 3.87039 83.0898 15.5798 81.3055 18.5536C77.5124 24.8755 72.0548 29.3572 66.3197 33.8178" stroke="black" stroke-width="3" stroke-linecap="round"/>
<path d="M68.3701 43.1587C71.0963 46.4126 75.5224 48.5733 79.331 50.2213C90.7802 55.1752 103.771 55.0402 115.884 57.0813C124.686 58.5644 134.622 62.3737 140.325 69.599C144.004 74.2612 146.168 80.3711 148.564 85.7619" stroke="black" stroke-width="3" stroke-linecap="round"/>
</svg>
