<svg width="300" height="300" viewBox="0 0 300 300" fill="none" xmlns="http://www.w3.org/2000/svg">
<rect width="5" height="5" transform="matrix(-1 0 0 1 220 85)" fill="#08E211" stroke="#08E211"/>
<rect width="5" height="5" transform="matrix(-1 0 0 1 220 90)" fill="#08E211" stroke="#08E211"/>
<rect width="5" height="5" transform="matrix(-1 0 0 1 220 95)" fill="#08E211" stroke="#08E211"/>
<rect width="5" height="5" transform="matrix(-1 0 0 1 220 100)" fill="#08E211" stroke="#08E211"/>
<rect width="5" height="5" transform="matrix(-1 0 0 1 220 105)" fill="#08E211" stroke="#08E211"/>
<rect width="5" height="5" transform="matrix(-1 0 0 1 230 85)" fill="#08E211" stroke="#08E211"/>
<rect width="5" height="5" transform="matrix(-1 0 0 1 230 90)" fill="#08E211" stroke="#08E211"/>
<rect width="5" height="5" transform="matrix(-1 0 0 1 230 95)" fill="#08E211" stroke="#08E211"/>
<rect width="5" height="5" transform="matrix(-1 0 0 1 230 100)" fill="#08E211" stroke="#08E211"/>
<rect width="5" height="5" transform="matrix(-1 0 0 1 230 105)" fill="#08E211" stroke="#08E211"/>
<rect width="5" height="5" transform="matrix(-1 0 0 1 235 105)" fill="#08E211" stroke="#08E211"/>
<rect width="5" height="5" transform="matrix(-1 0 0 1 240 105)" fill="#08E211" stroke="#08E211"/>
<rect width="5" height="5" transform="matrix(-1 0 0 1 240 100)" fill="#08E211" stroke="#08E211"/>
<rect width="5" height="5" transform="matrix(-1 0 0 1 240 95)" fill="#08E211" stroke="#08E211"/>
<rect width="5" height="5" transform="matrix(-1 0 0 1 240 90)" fill="#08E211" stroke="#08E211"/>
<rect width="5" height="5" transform="matrix(-1 0 0 1 240 85)" fill="#08E211" stroke="#08E211"/>
<rect width="5" height="5" transform="matrix(-1 0 0 1 235 85)" fill="#08E211" stroke="#08E211"/>
<rect width="5" height="5" transform="matrix(-1 0 0 1 250 85)" fill="#08E211" stroke="#08E211"/>
<rect width="5" height="5" transform="matrix(-1 0 0 1 250 90)" fill="#08E211" stroke="#08E211"/>
<rect width="5" height="5" transform="matrix(-1 0 0 1 250 95)" fill="#08E211" stroke="#08E211"/>
<rect width="5" height="5" transform="matrix(-1 0 0 1 250 100)" fill="#08E211" stroke="#08E211"/>
<rect width="5" height="5" transform="matrix(-1 0 0 1 250 105)" fill="#08E211" stroke="#08E211"/>
<rect width="5" height="5" transform="matrix(-1 0 0 1 260 85)" fill="#08E211" stroke="#08E211"/>
<rect width="5" height="5" transform="matrix(-1 0 0 1 260 90)" fill="#08E211" stroke="#08E211"/>
<rect width="5" height="5" transform="matrix(-1 0 0 1 260 95)" fill="#08E211" stroke="#08E211"/>
<rect width="5" height="5" transform="matrix(-1 0 0 1 260 100)" fill="#08E211" stroke="#08E211"/>
<rect width="5" height="5" transform="matrix(-1 0 0 1 260 105)" fill="#08E211" stroke="#08E211"/>
<rect width="5" height="5" transform="matrix(-1 0 0 1 270 85)" fill="#08E211" stroke="#08E211"/>
<rect width="5" height="5" transform="matrix(-1 0 0 1 270 90)" fill="#08E211" stroke="#08E211"/>
<rect width="5" height="5" transform="matrix(-1 0 0 1 270 95)" fill="#08E211" stroke="#08E211"/>
<rect width="5" height="5" transform="matrix(-1 0 0 1 270 100)" fill="#08E211" stroke="#08E211"/>
<rect width="5" height="5" transform="matrix(-1 0 0 1 270 105)" fill="#08E211" stroke="#08E211"/>
<rect width="5" height="5" transform="matrix(-1 0 0 1 275 105)" fill="#08E211" stroke="#08E211"/>
<rect width="5" height="5" transform="matrix(-1 0 0 1 280 105)" fill="#08E211" stroke="#08E211"/>
<rect width="5" height="5" transform="matrix(-1 0 0 1 280 100)" fill="#08E211" stroke="#08E211"/>
<rect width="5" height="5" transform="matrix(-1 0 0 1 280 95)" fill="#08E211" stroke="#08E211"/>
<rect width="5" height="5" transform="matrix(-1 0 0 1 280 90)" fill="#08E211" stroke="#08E211"/>
<rect width="5" height="5" transform="matrix(-1 0 0 1 280 85)" fill="#08E211" stroke="#08E211"/>
<rect width="5" height="5" transform="matrix(-1 0 0 1 275 85)" fill="#08E211" stroke="#08E211"/>
<rect width="5" height="5" transform="matrix(-1 0 0 1 225 85)" fill="#822102" stroke="#822102"/>
<rect width="5" height="5" transform="matrix(-1 0 0 1 225 80)" fill="#822102" stroke="#822102"/>
<rect width="5" height="5" transform="matrix(-1 0 0 1 220 80)" fill="#822102" stroke="#822102"/>
<rect width="5" height="5" transform="matrix(-1 0 0 1 215 80)" fill="#822102" stroke="#822102"/>
<rect width="5" height="5" transform="matrix(-1 0 0 1 240 80)" fill="#822102" stroke="#822102"/>
<rect width="5" height="5" transform="matrix(-1 0 0 1 235 80)" fill="#822102" stroke="#822102"/>
<rect width="5" height="5" transform="matrix(-1 0 0 1 230 80)" fill="#822102" stroke="#822102"/>
<rect width="5" height="5" transform="matrix(-1 0 0 1 280 80)" fill="#822102" stroke="#822102"/>
<rect width="5" height="5" transform="matrix(-1 0 0 1 275 80)" fill="#822102" stroke="#822102"/>
<rect width="5" height="5" transform="matrix(-1 0 0 1 270 80)" fill="#822102" stroke="#822102"/>
<rect width="5" height="5" transform="matrix(-1 0 0 1 240 110)" fill="#822102" stroke="#822102"/>
<rect width="5" height="5" transform="matrix(-1 0 0 1 235 110)" fill="#822102" stroke="#822102"/>
<rect width="5" height="5" transform="matrix(-1 0 0 1 230 110)" fill="#822102" stroke="#822102"/>
<rect width="5" height="5" transform="matrix(-1 0 0 1 280 110)" fill="#822102" stroke="#822102"/>
<rect width="5" height="5" transform="matrix(-1 0 0 1 275 110)" fill="#822102" stroke="#822102"/>
<rect width="5" height="5" transform="matrix(-1 0 0 1 270 110)" fill="#822102" stroke="#822102"/>
<rect x="225" y="110" width="5" height="5" transform="rotate(-180 225 110)" fill="#822102" stroke="#822102"/>
<rect x="225" y="115" width="5" height="5" transform="rotate(-180 225 115)" fill="#822102" stroke="#822102"/>
<rect x="220" y="115" width="5" height="5" transform="rotate(-180 220 115)" fill="#822102" stroke="#822102"/>
<rect x="215" y="115" width="5" height="5" transform="rotate(-180 215 115)" fill="#822102" stroke="#822102"/>
<rect width="5" height="5" transform="matrix(-1 0 0 1 215 85)" fill="#822102" stroke="#822102"/>
<rect width="5" height="5" transform="matrix(-1 0 0 1 215 90)" fill="#822102" stroke="#822102"/>
<rect width="5" height="5" transform="matrix(-1 0 0 1 215 95)" fill="#822102" stroke="#822102"/>
<rect width="5" height="5" transform="matrix(-1 0 0 1 215 100)" fill="#822102" stroke="#822102"/>
<rect width="5" height="5" transform="matrix(-1 0 0 1 225 90)" fill="#822102" stroke="#822102"/>
<rect width="5" height="5" transform="matrix(-1 0 0 1 225 95)" fill="#822102" stroke="#822102"/>
<rect width="5" height="5" transform="matrix(-1 0 0 1 225 100)" fill="#822102" stroke="#822102"/>
<rect width="5" height="5" transform="matrix(-1 0 0 1 215 105)" fill="#822102" stroke="#822102"/>
<rect width="5" height="5" transform="matrix(-1 0 0 1 255 85)" fill="#822102" stroke="#822102"/>
<rect width="5" height="5" transform="matrix(-1 0 0 1 255 80)" fill="#822102" stroke="#822102"/>
<rect width="5" height="5" transform="matrix(-1 0 0 1 250 80)" fill="#822102" stroke="#822102"/>
<rect width="5" height="5" transform="matrix(-1 0 0 1 245 80)" fill="#822102" stroke="#822102"/>
<rect x="255" y="110" width="5" height="5" transform="rotate(180 255 110)" fill="#822102" stroke="#822102"/>
<rect x="255" y="115" width="5" height="5" transform="rotate(180 255 115)" fill="#822102" stroke="#822102"/>
<rect x="250" y="115" width="5" height="5" transform="rotate(180 250 115)" fill="#822102" stroke="#822102"/>
<rect x="245" y="115" width="5" height="5" transform="rotate(180 245 115)" fill="#822102" stroke="#822102"/>
<rect width="5" height="5" transform="matrix(-1 0 0 1 245 85)" fill="#822102" stroke="#822102"/>
<rect width="5" height="5" transform="matrix(-1 0 0 1 245 90)" fill="#822102" stroke="#822102"/>
<rect width="5" height="5" transform="matrix(-1 0 0 1 245 95)" fill="#822102" stroke="#822102"/>
<rect width="5" height="5" transform="matrix(-1 0 0 1 245 100)" fill="#822102" stroke="#822102"/>
<rect width="5" height="5" transform="matrix(-1 0 0 1 255 90)" fill="#822102" stroke="#822102"/>
<rect width="5" height="5" transform="matrix(-1 0 0 1 255 95)" fill="#822102" stroke="#822102"/>
<rect width="5" height="5" transform="matrix(-1 0 0 1 255 100)" fill="#822102" stroke="#822102"/>
<rect width="5" height="5" transform="matrix(-1 0 0 1 245 105)" fill="#822102" stroke="#822102"/>
<rect width="5" height="5" transform="matrix(-1 0 0 1 265 85)" fill="#822102" stroke="#822102"/>
<rect width="5" height="5" transform="matrix(-1 0 0 1 265 80)" fill="#822102" stroke="#822102"/>
<rect width="5" height="5" transform="matrix(-1 0 0 1 260 80)" fill="#822102" stroke="#822102"/>
<rect x="265" y="110" width="5" height="5" transform="rotate(180 265 110)" fill="#822102" stroke="#822102"/>
<rect x="265" y="115" width="5" height="5" transform="rotate(180 265 115)" fill="#822102" stroke="#822102"/>
<rect x="260" y="115" width="5" height="5" transform="rotate(180 260 115)" fill="#822102" stroke="#822102"/>
<rect width="5" height="5" transform="matrix(-1 0 0 1 265 90)" fill="#822102" stroke="#822102"/>
<rect width="5" height="5" transform="matrix(-1 0 0 1 265 95)" fill="#822102" stroke="#822102"/>
<rect width="5" height="5" transform="matrix(-1 0 0 1 265 100)" fill="#822102" stroke="#822102"/>
<rect width="5" height="5" transform="matrix(-1 0 0 1 285 85)" fill="#822102" stroke="#822102"/>
<rect width="5" height="5" transform="matrix(-1 0 0 1 285 80)" fill="#822102" stroke="#822102"/>
<rect x="285" y="110" width="5" height="5" transform="rotate(180 285 110)" fill="#822102" stroke="#822102"/>
<rect x="285" y="115" width="5" height="5" transform="rotate(180 285 115)" fill="#822102" stroke="#822102"/>
<rect width="5" height="5" transform="matrix(-1 0 0 1 285 90)" fill="#822102" stroke="#822102"/>
<rect width="5" height="5" transform="matrix(-1 0 0 1 285 95)" fill="#822102" stroke="#822102"/>
<rect width="5" height="5" transform="matrix(-1 0 0 1 285 100)" fill="#822102" stroke="#822102"/>
<rect width="5" height="5" transform="matrix(-1 0 0 1 275 90)" fill="#822102" stroke="#822102"/>
<rect width="5" height="5" transform="matrix(-1 0 0 1 275 95)" fill="#822102" stroke="#822102"/>
<rect width="5" height="5" transform="matrix(-1 0 0 1 275 100)" fill="#822102" stroke="#822102"/>
<rect width="5" height="5" transform="matrix(-1 0 0 1 235 90)" fill="#822102" stroke="#822102"/>
<rect width="5" height="5" transform="matrix(-1 0 0 1 235 95)" fill="#822102" stroke="#822102"/>
<rect width="5" height="5" transform="matrix(-1 0 0 1 235 100)" fill="#822102" stroke="#822102"/>
</svg>
