<svg width="300" height="300" viewBox="0 0 300 300" fill="none" xmlns="http://www.w3.org/2000/svg">
<g clip-path="url(#clip0_462_12690)">
<rect width="5" height="5" transform="matrix(-1 0 0 1 225 95)" fill="#663931" stroke="#663931"/>
<rect width="5" height="5" transform="matrix(-1 0 0 1 230 95)" fill="#663931" stroke="#663931"/>
<rect width="5" height="5" transform="matrix(-1 0 0 1 235 95)" fill="#663931" stroke="#663931"/>
<rect width="5" height="5" transform="matrix(-1 0 0 1 240 95)" fill="#663931" stroke="#663931"/>
<rect width="5" height="5" transform="matrix(-1 0 0 1 245 95)" fill="#663931" stroke="#663931"/>
<rect width="5" height="5" transform="matrix(-1 0 0 1 240 110)" fill="#9897A3" stroke="#9897A3"/>
<rect width="5" height="5" transform="matrix(-1 0 0 1 245 110)" fill="#9897A3" stroke="#9897A3"/>
<rect width="5" height="5" transform="matrix(-1 0 0 1 250 110)" fill="#9897A3" stroke="#9897A3"/>
<rect width="5" height="5" transform="matrix(-1 0 0 1 255 110)" fill="#9897A3" stroke="#9897A3"/>
<rect width="5" height="5" transform="matrix(-1 0 0 1 260 110)" fill="#9897A3" stroke="#9897A3"/>
<rect width="5" height="5" transform="matrix(-1 0 0 1 265 110)" fill="#9897A3" stroke="#9897A3"/>
<rect width="5" height="5" transform="matrix(-1 0 0 1 270 110)" fill="#9897A3" stroke="#9897A3"/>
<rect width="5" height="5" transform="matrix(-1 0 0 1 275 110)" fill="#9897A3" stroke="#9897A3"/>
<rect width="5" height="5" transform="matrix(-1 0 0 1 245 105)" fill="#9897A3" stroke="#9897A3"/>
<rect width="5" height="5" transform="matrix(-1 0 0 1 245 100)" fill="#9897A3" stroke="#9897A3"/>
<rect width="5" height="5" transform="matrix(-1 0 0 1 240 105)" fill="#9897A3" stroke="#9897A3"/>
<rect width="5" height="5" transform="matrix(-1 0 0 1 235 110)" fill="#9897A3" stroke="#9897A3"/>
<rect width="5" height="5" transform="matrix(-1 0 0 1 250 105)" fill="#663931" stroke="#663931"/>
<rect width="5" height="5" transform="matrix(-1 0 0 1 255 105)" fill="#663931" stroke="#663931"/>
<rect width="5" height="5" transform="matrix(-1 0 0 1 260 105)" fill="#9897A3" stroke="#9897A3"/>
<rect width="5" height="5" transform="matrix(-1 0 0 1 265 105)" fill="#9897A3" stroke="#9897A3"/>
<rect width="5" height="5" transform="matrix(-1 0 0 1 275 105)" fill="#9897A3" stroke="#9897A3"/>
<rect width="5" height="5" transform="matrix(-1 0 0 1 280 110)" fill="#9897A3" stroke="#9897A3"/>
<rect width="5" height="5" transform="matrix(-1 0 0 1 260 100)" fill="#9897A3" stroke="#9897A3"/>
<rect width="5" height="5" transform="matrix(-1 0 0 1 255 100)" fill="#9897A3" stroke="#9897A3"/>
<rect width="5" height="5" transform="matrix(-1 0 0 1 265 100)" fill="#9897A3" stroke="#9897A3"/>
<rect width="5" height="5" transform="matrix(-1 0 0 1 265 95)" fill="#9897A3" stroke="#9897A3"/>
<rect width="5" height="5" transform="matrix(-1 0 0 1 270 95)" fill="#9897A3" stroke="#9897A3"/>
<rect width="5" height="5" transform="matrix(-1 0 0 1 270 90)" fill="#9897A3" stroke="#9897A3"/>
<rect width="5" height="5" transform="matrix(-1 0 0 1 270 100)" fill="#9897A3" stroke="#9897A3"/>
<rect width="5" height="5" transform="matrix(-1 0 0 1 270 105)" fill="#9897A3" stroke="#9897A3"/>
<rect width="5" height="5" transform="matrix(-1 0 0 1 270 85)" fill="#9897A3" stroke="#9897A3"/>
<rect width="5" height="5" transform="matrix(-1 0 0 1 270 70)" fill="#9897A3" stroke="#9897A3"/>
<rect width="5" height="5" transform="matrix(-1 0 0 1 270 65)" fill="#9897A3" stroke="#9897A3"/>
<rect width="5" height="5" transform="matrix(-1 0 0 1 270 75)" fill="#9897A3" stroke="#9897A3"/>
<rect width="5" height="5" transform="matrix(-1 0 0 1 270 55)" fill="#DEF7FF" stroke="#DEF7FF"/>
<rect width="5" height="5" transform="matrix(-1 0 0 1 270 50)" fill="#DEF7FF" stroke="#DEF7FF"/>
<rect width="5" height="5" transform="matrix(-1 0 0 1 275 65)" fill="#9897A3" stroke="#9897A3"/>
<rect width="5" height="5" transform="matrix(-1 0 0 1 270 60)" fill="#9897A3" stroke="#9897A3"/>
<rect width="5" height="5" transform="matrix(-1 0 0 1 265 60)" fill="#DEF7FF" stroke="#DEF7FF"/>
<rect width="5" height="5" transform="matrix(-1 0 0 1 260 60)" fill="#DEF7FF" stroke="#DEF7FF"/>
<rect width="5" height="5" transform="matrix(-1 0 0 1 275 60)" fill="#9897A3" stroke="#9897A3"/>
<rect width="5" height="5" transform="matrix(-1 0 0 1 280 70)" fill="#9897A3" stroke="#9897A3"/>
<rect width="5" height="5" transform="matrix(-1 0 0 1 280 65)" fill="#9897A3" stroke="#9897A3"/>
<rect width="5" height="5" transform="matrix(-1 0 0 1 265 55)" fill="#DEF7FF" stroke="#DEF7FF"/>
<rect width="5" height="5" transform="matrix(-1 0 0 1 275 55)" fill="#9897A3" stroke="#9897A3"/>
<rect width="5" height="5" transform="matrix(-1 0 0 1 270 45)" fill="#DEF7FF" stroke="#DEF7FF"/>
<rect width="5" height="5" transform="matrix(-1 0 0 1 265 50)" fill="#DEF7FF" stroke="#DEF7FF"/>
<rect width="5" height="5" transform="matrix(-1 0 0 1 275 50)" fill="#DEF7FF" stroke="#DEF7FF"/>
<rect width="5" height="5" transform="matrix(-1 0 0 1 280 50)" fill="#DEF7FF" stroke="#DEF7FF"/>
<rect width="5" height="5" transform="matrix(-1 0 0 1 280 55)" fill="#DEF7FF" stroke="#DEF7FF"/>
<rect width="5" height="5" transform="matrix(-1 0 0 1 280 60)" fill="#DEF7FF" stroke="#DEF7FF"/>
<rect width="5" height="5" transform="matrix(-1 0 0 1 285 60)" fill="#DEF7FF" stroke="#DEF7FF"/>
<rect width="5" height="5" transform="matrix(-1 0 0 1 285 65)" fill="#DEF7FF" stroke="#DEF7FF"/>
<rect width="5" height="5" transform="matrix(-1 0 0 1 270 40)" fill="#DEF7FF" stroke="#DEF7FF"/>
<rect width="5" height="5" transform="matrix(-1 0 0 1 265 45)" fill="#DEF7FF" stroke="#DEF7FF"/>
<rect width="5" height="5" transform="matrix(-1 0 0 1 275 45)" fill="#DEF7FF" stroke="#DEF7FF"/>
<rect width="5" height="5" transform="matrix(-1 0 0 1 260 70)" fill="#9897A3" stroke="#9897A3"/>
<rect width="5" height="5" transform="matrix(-1 0 0 1 260 65)" fill="#9897A3" stroke="#9897A3"/>
<rect width="5" height="5" transform="matrix(-1 0 0 1 255 65)" fill="#9897A3" stroke="#9897A3"/>
<rect width="5" height="5" transform="matrix(-1 0 0 1 265 70)" fill="#9897A3" stroke="#9897A3"/>
<rect width="5" height="5" transform="matrix(-1 0 0 1 265 65)" fill="#9897A3" stroke="#9897A3"/>
<rect width="5" height="5" transform="matrix(-1 0 0 1 265 75)" fill="#9897A3" stroke="#9897A3"/>
<rect width="5" height="5" transform="matrix(-1 0 0 1 270 80)" fill="#9897A3" stroke="#9897A3"/>
<rect width="5" height="5" transform="matrix(-1 0 0 1 275 100)" fill="#9897A3" stroke="#9897A3"/>
<rect width="5" height="5" transform="matrix(-1 0 0 1 275 85)" fill="#9897A3" stroke="#9897A3"/>
<rect width="5" height="5" transform="matrix(-1 0 0 1 275 80)" fill="#9897A3" stroke="#9897A3"/>
<rect width="5" height="5" transform="matrix(-1 0 0 1 275 90)" fill="#9897A3" stroke="#9897A3"/>
<rect width="5" height="5" transform="matrix(-1 0 0 1 275 95)" fill="#9897A3" stroke="#9897A3"/>
<rect width="5" height="5" transform="matrix(-1 0 0 1 280 105)" fill="#9897A3" stroke="#9897A3"/>
<rect width="5" height="5" transform="matrix(-1 0 0 1 280 90)" fill="#9897A3" stroke="#9897A3"/>
<rect width="5" height="5" transform="matrix(-1 0 0 1 280 85)" fill="#9897A3" stroke="#9897A3"/>
<rect width="5" height="5" transform="matrix(-1 0 0 1 275 75)" fill="#9897A3" stroke="#9897A3"/>
<rect width="5" height="5" transform="matrix(-1 0 0 1 275 70)" fill="#9897A3" stroke="#9897A3"/>
<rect width="5" height="5" transform="matrix(-1 0 0 1 280 80)" fill="#9897A3" stroke="#9897A3"/>
<rect width="5" height="5" transform="matrix(-1 0 0 1 280 75)" fill="#9897A3" stroke="#9897A3"/>
<rect width="5" height="5" transform="matrix(-1 0 0 1 285 70)" fill="#9897A3" stroke="#9897A3"/>
<rect width="5" height="5" transform="matrix(-1 0 0 1 285 85)" fill="#9897A3" stroke="#9897A3"/>
<rect width="5" height="5" transform="matrix(-1 0 0 1 285 80)" fill="#9897A3" stroke="#9897A3"/>
<rect width="5" height="5" transform="matrix(-1 0 0 1 290 80)" fill="#9897A3" stroke="#9897A3"/>
<rect width="5" height="5" transform="matrix(-1 0 0 1 285 75)" fill="#9897A3" stroke="#9897A3"/>
<rect width="5" height="5" transform="matrix(-1 0 0 1 290 85)" fill="#9897A3" stroke="#9897A3"/>
<rect width="5" height="5" transform="matrix(-1 0 0 1 290 100)" fill="#9897A3" stroke="#9897A3"/>
<rect width="5" height="5" transform="matrix(-1 0 0 1 290 95)" fill="#9897A3" stroke="#9897A3"/>
<rect width="5" height="5" transform="matrix(-1 0 0 1 290 90)" fill="#9897A3" stroke="#9897A3"/>
<rect width="5" height="5" transform="matrix(-1 0 0 1 280 95)" fill="#9897A3" stroke="#9897A3"/>
<rect width="5" height="5" transform="matrix(-1 0 0 1 285 105)" fill="#9897A3" stroke="#9897A3"/>
<rect width="5" height="5" transform="matrix(-1 0 0 1 285 100)" fill="#9897A3" stroke="#9897A3"/>
<rect width="5" height="5" transform="matrix(-1 0 0 1 285 95)" fill="#9897A3" stroke="#9897A3"/>
<rect width="5" height="5" transform="matrix(-1 0 0 1 285 90)" fill="#9897A3" stroke="#9897A3"/>
<rect width="5" height="5" transform="matrix(-1 0 0 1 285 110)" fill="#9897A3" stroke="#9897A3"/>
<rect width="5" height="5" transform="matrix(-1 0 0 1 290 105)" fill="#9897A3" stroke="#9897A3"/>
<rect width="5" height="5" transform="matrix(-1 0 0 1 295 100)" fill="#9897A3" stroke="#9897A3"/>
<rect width="5" height="5" transform="matrix(-1 0 0 1 295 105)" fill="#9897A3" stroke="#9897A3"/>
<rect width="5" height="5" transform="matrix(-1 0 0 1 290 110)" fill="#9897A3" stroke="#9897A3"/>
<rect width="5" height="5" transform="matrix(-1 0 0 1 295 110)" fill="#9897A3" stroke="#9897A3"/>
<rect width="5" height="5" transform="matrix(-1 0 0 1 280 100)" fill="#9897A3" stroke="#9897A3"/>
<rect width="5" height="5" transform="matrix(-1 0 0 1 250 95)" fill="#663931" stroke="#663931"/>
<rect width="5" height="5" transform="matrix(-1 0 0 1 260 95)" fill="#663931" stroke="#663931"/>
<rect width="5" height="5" transform="matrix(-1 0 0 1 265 90)" fill="#663931" stroke="#663931"/>
<rect width="5" height="5" transform="matrix(-1 0 0 1 255 95)" fill="#663931" stroke="#663931"/>
<rect width="5" height="5" transform="matrix(-1 0 0 1 265 85)" fill="#663931" stroke="#663931"/>
<rect width="5" height="5" transform="matrix(-1 0 0 1 265 80)" fill="#663931" stroke="#663931"/>
<rect width="5" height="5" transform="matrix(-1 0 0 1 215 85)" fill="#663931" stroke="#663931"/>
<rect width="5" height="5" transform="matrix(-1 0 0 1 215 90)" fill="#663931" stroke="#663931"/>
<rect width="5" height="5" transform="matrix(-1 0 0 1 220 95)" fill="#663931" stroke="#663931"/>
<rect width="5" height="5" transform="matrix(-1 0 0 1 230 100)" fill="#663931" stroke="#663931"/>
<rect width="5" height="5" transform="matrix(-1 0 0 1 230 105)" fill="#663931" stroke="#663931"/>
<rect width="5" height="5" transform="matrix(-1 0 0 1 225 105)" fill="#663931" stroke="#663931"/>
<rect width="5" height="5" transform="matrix(-1 0 0 1 250 100)" fill="#663931" stroke="#663931"/>
<rect width="5" height="5" transform="matrix(-1 0 0 1 215 80)" fill="#663931" stroke="#663931"/>
<rect width="5" height="5" transform="matrix(-1 0 0 1 260 75)" fill="#663931" stroke="#663931"/>
<rect width="5" height="5" transform="matrix(-1 0 0 1 255 70)" fill="#663931" stroke="#663931"/>
<rect width="5" height="5" transform="matrix(-1 0 0 1 250 70)" fill="#663931" stroke="#663931"/>
<rect width="5" height="5" transform="matrix(-1 0 0 1 245 70)" fill="#663931" stroke="#663931"/>
<rect width="5" height="5" transform="matrix(-1 0 0 1 240 70)" fill="#663931" stroke="#663931"/>
<rect width="5" height="5" transform="matrix(-1 0 0 1 240 75)" fill="#EEC39A" stroke="#EEC39A"/>
<rect width="5" height="5" transform="matrix(-1 0 0 1 240 80)" fill="#EEC39A" stroke="#EEC39A"/>
<rect width="5" height="5" transform="matrix(-1 0 0 1 240 85)" fill="#EEC39A" stroke="#EEC39A"/>
<rect width="5" height="5" transform="matrix(-1 0 0 1 235 75)" fill="#EEC39A" stroke="#EEC39A"/>
<rect width="5" height="5" transform="matrix(-1 0 0 1 230 75)" fill="#EEC39A" stroke="#EEC39A"/>
<rect width="5" height="5" transform="matrix(-1 0 0 1 225 75)" fill="#EEC39A" stroke="#EEC39A"/>
<rect width="5" height="5" transform="matrix(-1 0 0 1 235 80)" fill="#EEC39A" stroke="#EEC39A"/>
<rect width="5" height="5" transform="matrix(-1 0 0 1 230 80)" fill="#EEC39A" stroke="#EEC39A"/>
<rect width="5" height="5" transform="matrix(-1 0 0 1 225 80)" fill="#EEC39A" stroke="#EEC39A"/>
<rect width="5" height="5" transform="matrix(-1 0 0 1 220 80)" fill="#EEC39A" stroke="#EEC39A"/>
<rect width="5" height="5" transform="matrix(-1 0 0 1 235 85)" fill="#EEC39A" stroke="#EEC39A"/>
<rect width="5" height="5" transform="matrix(-1 0 0 1 230 85)" fill="#663931" stroke="#663931"/>
<rect width="5" height="5" transform="matrix(-1 0 0 1 225 85)" fill="#EEC39A" stroke="#EEC39A"/>
<rect width="5" height="5" transform="matrix(-1 0 0 1 220 85)" fill="#EEC39A" stroke="#EEC39A"/>
<rect width="5" height="5" transform="matrix(-1 0 0 1 240 90)" fill="#EEC39A" stroke="#EEC39A"/>
<rect width="5" height="5" transform="matrix(-1 0 0 1 235 90)" fill="#EEC39A" stroke="#EEC39A"/>
<rect width="5" height="5" transform="matrix(-1 0 0 1 230 90)" fill="#EEC39A" stroke="#EEC39A"/>
<rect width="5" height="5" transform="matrix(-1 0 0 1 225 90)" fill="#EEC39A" stroke="#EEC39A"/>
<rect x="240" y="75" width="5" height="5" fill="#EEC39A" stroke="#EEC39A"/>
<rect x="245" y="75" width="5" height="5" fill="#EEC39A" stroke="#EEC39A"/>
<rect x="250" y="75" width="5" height="5" fill="#EEC39A" stroke="#EEC39A"/>
<rect x="240" y="80" width="5" height="5" fill="#EEC39A" stroke="#EEC39A"/>
<rect x="245" y="80" width="5" height="5" fill="#EEC39A" stroke="#EEC39A"/>
<rect x="250" y="80" width="5" height="5" fill="#EEC39A" stroke="#EEC39A"/>
<rect x="255" y="80" width="5" height="5" fill="#EEC39A" stroke="#EEC39A"/>
<rect x="240" y="85" width="5" height="5" fill="#EEC39A" stroke="#EEC39A"/>
<rect x="245" y="85" width="5" height="5" fill="#663931" stroke="#663931"/>
<rect x="250" y="85" width="5" height="5" fill="#EEC39A" stroke="#EEC39A"/>
<rect x="255" y="85" width="5" height="5" fill="#EEC39A" stroke="#EEC39A"/>
<rect width="5" height="5" transform="matrix(-1 0 0 1 220 90)" fill="#EEC39A" stroke="#EEC39A"/>
<rect x="255" y="90" width="5" height="5" fill="#EEC39A" stroke="#EEC39A"/>
<rect x="240" y="90" width="5" height="5" fill="#EEC39A" stroke="#EEC39A"/>
<rect x="245" y="90" width="5" height="5" fill="#EEC39A" stroke="#EEC39A"/>
<rect x="250" y="90" width="5" height="5" fill="#EEC39A" stroke="#EEC39A"/>
<rect width="5" height="5" transform="matrix(-1 0 0 1 240 65)" fill="#386C5D" stroke="#386C5D"/>
<rect width="5" height="5" transform="matrix(-1 0 0 1 240 60)" fill="#386C5D" stroke="#386C5D"/>
<rect width="5" height="5" transform="matrix(-1 0 0 1 235 55)" fill="#386C5D" stroke="#386C5D"/>
<rect width="5" height="5" transform="matrix(-1 0 0 1 235 60)" fill="#386C5D" stroke="#386C5D"/>
<rect width="5" height="5" transform="matrix(-1 0 0 1 230 55)" fill="#386C5D" stroke="#386C5D"/>
<rect width="5" height="5" transform="matrix(-1 0 0 1 225 55)" fill="#386C5D" stroke="#386C5D"/>
<rect width="5" height="5" transform="matrix(-1 0 0 1 220 55)" fill="#386C5D" stroke="#386C5D"/>
<rect width="5" height="5" transform="matrix(-1 0 0 1 225 50)" fill="#386C5D" stroke="#386C5D"/>
<rect width="5" height="5" transform="matrix(-1 0 0 1 230 50)" fill="#386C5D" stroke="#386C5D"/>
<rect x="240" y="55" width="5" height="5" fill="#386C5D" stroke="#386C5D"/>
<rect x="240" y="60" width="5" height="5" fill="#386C5D" stroke="#386C5D"/>
<rect x="245" y="55" width="5" height="5" fill="#386C5D" stroke="#386C5D"/>
<rect x="250" y="55" width="5" height="5" fill="#386C5D" stroke="#386C5D"/>
<rect x="255" y="55" width="5" height="5" fill="#386C5D" stroke="#386C5D"/>
<rect x="250" y="50" width="5" height="5" fill="#386C5D" stroke="#386C5D"/>
<rect x="245" y="50" width="5" height="5" fill="#386C5D" stroke="#386C5D"/>
<rect width="5" height="5" transform="matrix(-1 0 0 1 235 70)" fill="#663931" stroke="#663931"/>
<rect width="5" height="5" transform="matrix(-1 0 0 1 230 70)" fill="#663931" stroke="#663931"/>
<rect width="5" height="5" transform="matrix(-1 0 0 1 225 70)" fill="#663931" stroke="#663931"/>
<rect width="5" height="5" transform="matrix(-1 0 0 1 220 75)" fill="#663931" stroke="#663931"/>
<rect width="5" height="5" transform="matrix(-1 0 0 1 220 70)" fill="#822102" stroke="#822102"/>
<rect width="5" height="5" transform="matrix(-1 0 0 1 215 75)" fill="#822102" stroke="#822102"/>
<rect width="5" height="5" transform="matrix(-1 0 0 1 210 80)" fill="#822102" stroke="#822102"/>
<rect width="5" height="5" transform="matrix(-1 0 0 1 210 85)" fill="#822102" stroke="#822102"/>
<rect width="5" height="5" transform="matrix(-1 0 0 1 210 90)" fill="#822102" stroke="#822102"/>
<rect width="5" height="5" transform="matrix(-1 0 0 1 300 100)" fill="#822102" stroke="#822102"/>
<rect width="5" height="5" transform="matrix(-1 0 0 1 300 105)" fill="#822102" stroke="#822102"/>
<rect width="5" height="5" transform="matrix(-1 0 0 1 300 110)" fill="#822102" stroke="#822102"/>
<rect width="5" height="5" transform="matrix(-1 0 0 1 295 85)" fill="#822102" stroke="#822102"/>
<rect width="5" height="5" transform="matrix(-1 0 0 1 295 80)" fill="#822102" stroke="#822102"/>
<rect width="5" height="5" transform="matrix(-1 0 0 1 295 90)" fill="#822102" stroke="#822102"/>
<rect width="5" height="5" transform="matrix(-1 0 0 1 295 95)" fill="#822102" stroke="#822102"/>
<rect width="5" height="5" transform="matrix(-1 0 0 1 290 65)" fill="#822102" stroke="#822102"/>
<rect width="5" height="5" transform="matrix(-1 0 0 1 290 60)" fill="#822102" stroke="#822102"/>
<rect width="5" height="5" transform="matrix(-1 0 0 1 285 55)" fill="#822102" stroke="#822102"/>
<rect width="5" height="5" transform="matrix(-1 0 0 1 285 50)" fill="#822102" stroke="#822102"/>
<rect width="5" height="5" transform="matrix(-1 0 0 1 280 45)" fill="#822102" stroke="#822102"/>
<rect width="5" height="5" transform="matrix(-1 0 0 1 275 40)" fill="#822102" stroke="#822102"/>
<rect width="5" height="5" transform="matrix(-1 0 0 1 270 35)" fill="#822102" stroke="#822102"/>
<rect width="5" height="5" transform="matrix(-1 0 0 1 265 40)" fill="#822102" stroke="#822102"/>
<rect width="5" height="5" transform="matrix(-1 0 0 1 260 45)" fill="#822102" stroke="#822102"/>
<rect width="5" height="5" transform="matrix(-1 0 0 1 290 70)" fill="#822102" stroke="#822102"/>
<rect width="5" height="5" transform="matrix(-1 0 0 1 290 75)" fill="#822102" stroke="#822102"/>
<rect width="5" height="5" transform="matrix(-1 0 0 1 215 95)" fill="#822102" stroke="#822102"/>
<rect width="5" height="5" transform="matrix(-1 0 0 1 220 100)" fill="#822102" stroke="#822102"/>
<rect width="5" height="5" transform="matrix(-1 0 0 1 225 100)" fill="#822102" stroke="#822102"/>
<rect width="5" height="5" transform="matrix(-1 0 0 1 220 105)" fill="#822102" stroke="#822102"/>
<rect width="5" height="5" transform="matrix(-1 0 0 1 225 110)" fill="#822102" stroke="#822102"/>
<rect width="5" height="5" transform="matrix(-1 0 0 1 230 110)" fill="#822102" stroke="#822102"/>
<rect width="5" height="5" transform="matrix(-1 0 0 1 235 115)" fill="#822102" stroke="#822102"/>
<rect width="5" height="5" transform="matrix(-1 0 0 1 240 115)" fill="#822102" stroke="#822102"/>
<rect width="5" height="5" transform="matrix(-1 0 0 1 245 115)" fill="#822102" stroke="#822102"/>
<rect width="5" height="5" transform="matrix(-1 0 0 1 250 115)" fill="#822102" stroke="#822102"/>
<rect width="5" height="5" transform="matrix(-1 0 0 1 255 115)" fill="#822102" stroke="#822102"/>
<rect width="5" height="5" transform="matrix(-1 0 0 1 260 115)" fill="#822102" stroke="#822102"/>
<rect width="5" height="5" transform="matrix(-1 0 0 1 265 115)" fill="#822102" stroke="#822102"/>
<rect width="5" height="5" transform="matrix(-1 0 0 1 270 115)" fill="#822102" stroke="#822102"/>
<rect width="5" height="5" transform="matrix(-1 0 0 1 275 115)" fill="#822102" stroke="#822102"/>
<rect width="5" height="5" transform="matrix(-1 0 0 1 280 115)" fill="#822102" stroke="#822102"/>
<rect width="5" height="5" transform="matrix(-1 0 0 1 285 115)" fill="#822102" stroke="#822102"/>
<rect width="5" height="5" transform="matrix(-1 0 0 1 290 115)" fill="#822102" stroke="#822102"/>
<rect width="5" height="5" transform="matrix(-1 0 0 1 295 115)" fill="#822102" stroke="#822102"/>
<rect width="5" height="5" transform="matrix(-1 0 0 1 235 105)" fill="#822102" stroke="#822102"/>
<rect width="5" height="5" transform="matrix(-1 0 0 1 235 100)" fill="#822102" stroke="#822102"/>
<rect width="5" height="5" transform="matrix(-1 0 0 1 240 100)" fill="#822102" stroke="#822102"/>
<rect width="5" height="5" transform="matrix(-1 0 0 1 225 65)" fill="#822102" stroke="#822102"/>
<rect width="5" height="5" transform="matrix(-1 0 0 1 230 65)" fill="#822102" stroke="#822102"/>
<rect width="5" height="5" transform="matrix(-1 0 0 1 245 65)" fill="#822102" stroke="#822102"/>
<rect width="5" height="5" transform="matrix(-1 0 0 1 235 65)" fill="#822102" stroke="#822102"/>
<rect width="5" height="5" transform="matrix(-1 0 0 1 220 60)" fill="#822102" stroke="#822102"/>
<rect width="5" height="5" transform="matrix(-1 0 0 1 215 55)" fill="#822102" stroke="#822102"/>
<rect width="5" height="5" transform="matrix(-1 0 0 1 220 50)" fill="#822102" stroke="#822102"/>
<rect width="5" height="5" transform="matrix(-1 0 0 1 225 45)" fill="#822102" stroke="#822102"/>
<rect width="5" height="5" transform="matrix(-1 0 0 1 230 45)" fill="#822102" stroke="#822102"/>
<rect width="5" height="5" transform="matrix(-1 0 0 1 250 45)" fill="#822102" stroke="#822102"/>
<rect width="5" height="5" transform="matrix(-1 0 0 1 255 45)" fill="#822102" stroke="#822102"/>
<rect width="5" height="5" transform="matrix(-1 0 0 1 235 50)" fill="#822102" stroke="#822102"/>
<rect width="5" height="5" transform="matrix(-1 0 0 1 240 55)" fill="#822102" stroke="#822102"/>
<rect width="5" height="5" transform="matrix(-1 0 0 1 245 50)" fill="#822102" stroke="#822102"/>
<rect width="5" height="5" transform="matrix(-1 0 0 1 260 50)" fill="#822102" stroke="#822102"/>
<rect width="5" height="5" transform="matrix(-1 0 0 1 225 60)" fill="#822102" stroke="#822102"/>
<rect width="5" height="5" transform="matrix(-1 0 0 1 230 60)" fill="#822102" stroke="#822102"/>
<rect width="5" height="5" transform="matrix(-1 0 0 1 250 65)" fill="#822102" stroke="#822102"/>
<rect width="5" height="5" transform="matrix(-1 0 0 1 250 60)" fill="#822102" stroke="#822102"/>
<rect width="5" height="5" transform="matrix(-1 0 0 1 255 60)" fill="#822102" stroke="#822102"/>
</g>
<defs>
<clipPath id="clip0_462_12690">
<rect width="300" height="300" fill="white"/>
</clipPath>
</defs>
</svg>
