<svg width="61" height="64" viewBox="0 0 61 64" fill="none" xmlns="http://www.w3.org/2000/svg">
<path d="M21.7627 39.7652C15.453 44.0285 9.28532 48.3722 2.60038 52.0078C-1.06754 54.0027 9.53872 56.7362 10.2944 56.8831C15.0174 57.8015 19.7094 58.755 24.4847 59.3752C28.4666 59.8923 32.5383 60.3111 36.4369 61.3108C39.2064 62.0209 39.5894 62.4359 41.5783 59.8712C46.2821 53.8058 49.6097 46.5817 54.7646 40.854C55.9188 39.5715 48.6932 39.0511 48.6433 39.0515C40.3911 39.1186 31.7507 41.6142 23.4564 40.3701C22.2387 40.1875 19.8181 39.8296 18.9319 38.8942C18.0112 37.9223 18.0574 35.7281 17.9399 34.5149C17.4336 29.2826 17.8476 24.0156 18.1698 18.7883C18.3659 15.6067 18.4128 12.5375 18.2908 9.36435C18.2817 9.12852 18.0786 7.64758 18.4359 7.53764C20.3827 6.93863 22.4988 6.90565 24.5089 6.7755C30.8437 6.36533 37.0315 5.04976 43.3204 4.27133C47.3054 3.77807 51.3321 3.55474 55.2727 2.74705C55.9369 2.61089 57.8418 1.89105 58.5632 2.35993C59.4377 2.92838 58.4052 7.45397 58.3454 8.28768C57.9533 13.7541 58.2186 19.2255 57.9946 24.6918C57.8657 27.8374 58.0272 31.1976 57.68 34.3214C57.5715 35.298 56.4809 35.9952 56.1679 36.9344" stroke="black" stroke-width="3" stroke-linecap="round"/>
</svg>
