<svg width="38" height="39" viewBox="0 0 38 39" fill="none" xmlns="http://www.w3.org/2000/svg">
<path fill-rule="evenodd" clip-rule="evenodd" d="M32.3695 5.90266C31.5735 4.60062 29.8725 4.33245 28.43 4.83067C27.1066 5.28779 25.6794 5.53693 24.1915 5.53693C20.4104 5.53693 17.0216 3.92807 14.7304 1.38601C13.5604 0.087919 11.6152 -0.527035 10.2464 0.559331C6.84232 3.26095 4.21306 6.82706 2.72538 10.9063C2.184 12.3908 4.03819 13.4387 5.37088 12.5897C6.60764 11.8019 8.18811 12.2552 9.25866 13.2573C11.6569 15.5022 14.9619 16.8895 18.6112 16.8895C21.9547 16.8895 25.0092 15.725 27.3421 13.8033C28.4712 12.8732 30.0734 12.5244 31.2545 13.3875C32.908 14.5958 35.5185 13.4553 34.9075 11.5007C34.2912 9.52919 33.4366 7.64822 32.3695 5.90266ZM8.38453 34.3847C8.69157 34.4457 8.82089 34.0118 8.54306 33.8676C8.09298 33.6339 7.65222 33.3864 7.22143 33.1254C6.97136 32.974 6.6883 33.2798 6.87798 33.5023C7.2663 33.9578 7.79741 34.2682 8.38453 34.3847Z" fill="#FCF6F8"/>
<path fill-rule="evenodd" clip-rule="evenodd" d="M31.6571 17.6672C30.4049 16.5936 28.5618 17.0595 27.3552 18.1841C25.1649 20.2255 22.1742 21.4828 18.8769 21.4828C15.3173 21.4828 12.1149 20.0175 9.89133 17.6823C8.75169 16.4854 6.93621 15.9061 5.61904 16.9042C3.45255 18.546 1.64507 20.6034 0.327822 22.9508C-0.0404361 23.6071 -0.101473 24.392 0.160117 25.0976C3.02614 32.8281 10.7295 38.3637 19.7825 38.3637C27.1714 38.3637 33.6612 34.6762 37.3557 29.1175C37.7715 28.4918 37.8943 27.7159 37.6882 26.9935C36.6465 23.3421 34.5183 20.1205 31.6571 17.6672Z" fill="#FCF6F8"/>
<path fill-rule="evenodd" clip-rule="evenodd" d="M5.60955 33.0284C7.18408 34.431 8.98573 35.6028 10.9558 36.4876C8.82728 33.9804 7.36646 30.2768 7.36646 25.7611C7.36646 22.4351 8.15894 19.5496 9.42702 17.2583C8.55875 16.5699 7.4527 16.2152 6.46496 16.4855C5.13615 19.1666 4.36646 22.3485 4.36646 25.7611C4.36646 28.3566 4.8117 30.8186 5.60955 33.0284Z" fill="#D59697"/>
<path fill-rule="evenodd" clip-rule="evenodd" d="M11.3781 19.0032C10.7548 19.4487 10.1448 19.9301 9.55193 20.4469C7.54806 22.1939 5.94689 24.1665 4.77782 26.2191C4.75537 28.2206 5.04558 30.2274 5.65204 32.1665C5.66047 32.1224 5.66915 32.0783 5.67809 32.034C6.32031 28.8539 8.28905 25.4018 11.5546 22.5549C12.4071 21.8117 13.2941 21.1567 14.1994 20.5889C13.1814 20.1819 12.2336 19.6463 11.3781 19.0032Z" fill="#D59697"/>
<path fill-rule="evenodd" clip-rule="evenodd" d="M18.9299 38.3474C15.4265 35.6143 12.2552 31.8838 9.91861 27.3589C9.22327 26.0123 8.63447 24.6586 8.14829 23.3104C7.38926 24.0093 6.56919 24.6424 5.69849 25.2046C6.13935 26.3137 6.64336 27.4214 7.21168 28.522C8.97217 31.9313 11.1839 34.9505 13.6775 37.4925C15.3486 37.9828 17.1092 38.2771 18.9299 38.3474Z" fill="#D59697"/>
<path fill-rule="evenodd" clip-rule="evenodd" d="M35.6841 22.4057C27.4448 23.4263 21.0763 30.162 21.0525 38.3271C22.0767 38.2681 23.0809 38.1381 24.0598 37.9422C24.2906 31.2471 29.8796 25.6538 37.1121 25.2907C36.7178 24.2867 36.239 23.3224 35.6841 22.4057Z" fill="#D59697"/>
<path fill-rule="evenodd" clip-rule="evenodd" d="M27.4244 13.7373C24.9783 10.5583 21.58 8.58813 17.8231 8.58813C14.3912 8.58813 11.2586 10.2322 8.87759 12.9398C9.01037 13.0381 9.13787 13.1443 9.25886 13.2576C9.86842 13.8281 10.5366 14.3433 11.2541 14.7944C13.147 12.739 15.5062 11.5881 17.8231 11.5881C20.3565 11.5881 22.9407 12.9643 24.9104 15.3944C25.7848 14.9494 26.6001 14.4146 27.3423 13.8032C27.3694 13.7809 27.3968 13.7589 27.4244 13.7373ZM8.54316 33.8672C8.82116 34.0115 8.69177 34.4457 8.38453 34.3847C7.79741 34.2682 7.2663 33.9578 6.87798 33.5023C6.68814 33.2796 6.97145 32.9735 7.22173 33.1251C7.65245 33.386 8.09314 33.6336 8.54316 33.8672Z" fill="#D59697"/>
</svg>
