<svg width="127" height="112" viewBox="0 0 127 112" fill="none" xmlns="http://www.w3.org/2000/svg">
<rect x="36" y="6" width="5" height="5" fill="#6282A0" stroke="#6282A0"/>
<rect x="41" y="6" width="5" height="5" fill="#6282A0" stroke="#6282A0"/>
<rect x="31" y="11" width="5" height="5" fill="#6282A0" stroke="#6282A0"/>
<rect x="26" y="16" width="5" height="5" fill="#6282A0" stroke="#6282A0"/>
<rect x="21" y="21" width="5" height="5" fill="#6282A0" stroke="#6282A0"/>
<rect x="21" y="26" width="5" height="5" fill="#6282A0" stroke="#6282A0"/>
<rect x="16" y="31" width="5" height="5" fill="#6282A0" stroke="#6282A0"/>
<rect x="16" y="36" width="5" height="5" fill="#6282A0" stroke="#6282A0"/>
<rect x="11" y="41" width="5" height="5" fill="#6282A0" stroke="#6282A0"/>
<rect x="6" y="46" width="5" height="5" fill="#6282A0" stroke="#6282A0"/>
<rect opacity="0.9" x="1" y="51" width="5" height="5" fill="#6282A0" stroke="#6282A0"/>
<rect opacity="0.75" x="1" y="56" width="5" height="5" fill="#6282A0" stroke="#6282A0"/>
<rect opacity="0.75" x="6" y="56" width="5" height="5" fill="#748974" stroke="#748974" stroke-opacity="0.15"/>
<rect opacity="0.75" x="16" y="76" width="5" height="5" fill="#748974" stroke="#748974"/>
<rect opacity="0.9" x="21" y="71" width="5" height="5" fill="#748974" stroke="#748974"/>
<rect x="26" y="66" width="5" height="5" fill="#748974" stroke="#748974"/>
<rect x="31" y="61" width="5" height="5" fill="#748974" stroke="#748974"/>
<rect x="36" y="56" width="5" height="5" fill="#748974" stroke="#748974"/>
<rect x="41" y="51" width="5" height="5" fill="#748974" stroke="#748974"/>
<rect x="46" y="46" width="5" height="5" fill="#748974" stroke="#748974"/>
<rect x="51" y="36" width="5" height="5" fill="#748974" stroke="#748974"/>
<rect x="51" y="41" width="5" height="5" fill="#748974" stroke="#748974"/>
<rect x="56" y="36" width="5" height="5" fill="#748974" stroke="#748974"/>
<rect x="61" y="96" width="5" height="5" fill="#667F6D" stroke="#667F6D"/>
<rect x="66" y="91" width="5" height="5" fill="#748974" stroke="#748974"/>
<rect x="66" y="96" width="5" height="5" fill="#748974" stroke="#748974"/>
<rect x="71" y="96" width="5" height="5" fill="#748974" stroke="#748974"/>
<rect x="71" y="91" width="5" height="5" fill="#748974" stroke="#748974"/>
<rect x="76" y="91" width="5" height="5" fill="#748974" stroke="#748974"/>
<rect x="76" y="96" width="5" height="5" fill="#748974" stroke="#748974"/>
<rect x="76" y="101" width="5" height="5" fill="#748974" stroke="#748974"/>
<rect x="76" y="86" width="5" height="5" fill="#748974" stroke="#748974"/>
<rect x="71" y="86" width="5" height="5" fill="#748974" stroke="#748974"/>
<rect x="66" y="101" width="5" height="5" fill="#667F6D" stroke="#667F6D"/>
<rect x="71" y="101" width="5" height="5" fill="#667F6D" stroke="#667F6D"/>
<rect x="81" y="96" width="5" height="5" fill="#748974" stroke="#748974"/>
<rect x="81" y="91" width="5" height="5" fill="#748974" stroke="#748974"/>
<rect x="86" y="91" width="5" height="5" fill="#86987B" stroke="#86987B"/>
<rect x="86" y="96" width="5" height="5" fill="#748974" stroke="#748974"/>
<rect x="86" y="101" width="5" height="5" fill="#748974" stroke="#748974"/>
<rect x="86" y="86" width="5" height="5" fill="#748974" stroke="#748974"/>
<rect x="81" y="86" width="5" height="5" fill="#748974" stroke="#748974"/>
<rect x="91" y="96" width="5" height="5" fill="#748974" stroke="#748974"/>
<rect x="91" y="91" width="5" height="5" fill="#86987B" stroke="#86987B"/>
<rect x="96" y="91" width="5" height="5" fill="#86987B" stroke="#86987B"/>
<rect x="96" y="96" width="5" height="5" fill="#748974" stroke="#748974"/>
<rect x="96" y="86" width="5" height="5" fill="#86987B" stroke="#86987B"/>
<rect x="91" y="86" width="5" height="5" fill="#86987B" stroke="#86987B"/>
<rect x="101" y="86" width="5" height="5" fill="#86987B" stroke="#86987B"/>
<rect x="106" y="81" width="5" height="5" fill="#9D9E78" stroke="#9D9E78"/>
<rect x="101" y="81" width="5" height="5" fill="#9D9E78" stroke="#9D9E78"/>
<rect x="81" y="101" width="5" height="5" fill="#748974" stroke="#748974"/>
<rect x="76" y="106" width="5" height="5" fill="#667F6D" stroke="#667F6D"/>
<rect x="81" y="106" width="5" height="5" fill="#667F6D" stroke="#667F6D"/>
<rect x="86" y="106" width="5" height="5" fill="#667F6D" stroke="#667F6D"/>
<rect x="91" y="101" width="5" height="5" fill="#667F6D" stroke="#667F6D"/>
<rect x="96" y="101" width="5" height="5" fill="#667F6D" stroke="#667F6D"/>
<rect x="101" y="96" width="5" height="5" fill="#667F6D" stroke="#667F6D"/>
<rect x="101" y="91" width="5" height="5" fill="#748974" stroke="#748974"/>
<rect x="106" y="86" width="5" height="5" fill="#748974" stroke="#748974"/>
<rect x="101" y="76" width="5" height="5" fill="#9E9178" fill-opacity="0.9" stroke="#9E9178" stroke-opacity="0.9"/>
<rect x="96" y="76" width="5" height="5" fill="#9E9178" fill-opacity="0.9" stroke="#9E9178" stroke-opacity="0.9"/>
<rect x="91" y="76" width="5" height="5" fill="#9E9178" fill-opacity="0.9" stroke="#9E9178" stroke-opacity="0.9"/>
<rect x="86" y="76" width="5" height="5" fill="#9E9178" fill-opacity="0.9" stroke="#9E9178" stroke-opacity="0.9"/>
<rect x="96" y="81" width="5" height="5" fill="#9D9E78" stroke="#9D9E78"/>
<rect x="91" y="81" width="5" height="5" fill="#9D9E78" stroke="#9D9E78"/>
<rect x="96" y="71" width="5" height="5" fill="#A39C83" fill-opacity="0.75" stroke="#A39C83" stroke-opacity="0.25"/>
<rect x="91" y="71" width="5" height="5" fill="#A39C83" fill-opacity="0.75" stroke="#A39C83" stroke-opacity="0.25"/>
<rect x="86" y="71" width="5" height="5" fill="#A39C83" fill-opacity="0.75" stroke="#A39C83" stroke-opacity="0.25"/>
<rect x="81" y="71" width="5" height="5" fill="#A39C83" fill-opacity="0.75" stroke="#A39C83" stroke-opacity="0.25"/>
<rect x="86" y="66" width="5" height="5" fill="#A39C83" fill-opacity="0.5" stroke="#A39C83" stroke-opacity="0.15"/>
<rect x="81" y="66" width="5" height="5" fill="#A39C83" fill-opacity="0.5" stroke="#A39C83" stroke-opacity="0.15"/>
<rect x="86" y="61" width="5" height="5" fill="#A39C83" fill-opacity="0.5" stroke="#A39C83" stroke-opacity="0.15"/>
<rect x="76" y="61" width="5" height="5" fill="#A39C83" fill-opacity="0.5" stroke="#A39C83" stroke-opacity="0.15"/>
<rect x="81" y="61" width="5" height="5" fill="#A39C83" fill-opacity="0.5" stroke="#A39C83" stroke-opacity="0.15"/>
<rect x="116" y="71" width="5" height="5" fill="#A39C83" fill-opacity="0.75" stroke="#A39C83" stroke-opacity="0.25"/>
<rect x="111" y="71" width="5" height="5" fill="#A39C83" fill-opacity="0.75" stroke="#A39C83" stroke-opacity="0.25"/>
<rect x="106" y="71" width="5" height="5" fill="#A39C83" fill-opacity="0.75" stroke="#A39C83" stroke-opacity="0.25"/>
<rect x="101" y="71" width="5" height="5" fill="#A39C83" fill-opacity="0.75" stroke="#A39C83" stroke-opacity="0.25"/>
<rect x="106" y="76" width="5" height="5" fill="#748974" stroke="#748974"/>
<rect x="111" y="76" width="5" height="5" fill="#748974" stroke="#748974"/>
<rect x="116" y="81" width="5" height="5" fill="#667F6D" stroke="#667F6D"/>
<rect x="111" y="86" width="5" height="5" fill="#667F6D" stroke="#667F6D"/>
<rect x="106" y="91" width="5" height="5" fill="#667F6D" stroke="#667F6D"/>
<rect x="111" y="81" width="5" height="5" fill="#748974" stroke="#748974"/>
<rect x="61" y="41" width="5" height="5" fill="#748974" stroke="#748974"/>
<rect x="66" y="46" width="5" height="5" fill="#748974" stroke="#748974"/>
<rect x="66" y="51" width="5" height="5" fill="#748974" stroke="#748974"/>
<rect x="66" y="56" width="5" height="5" fill="#748974" stroke="#748974"/>
<rect x="66" y="61" width="5" height="5" fill="#748974" stroke="#748974"/>
<rect x="71" y="66" width="5" height="5" fill="#748974" stroke="#748974"/>
<rect opacity="0.9" x="71" y="71" width="5" height="5" fill="#748974" stroke="#748974"/>
<rect opacity="0.75" x="76" y="76" width="5" height="5" fill="#748974" stroke="#748974" stroke-opacity="0.5"/>
<rect opacity="0.5" x="81" y="81" width="5" height="5" fill="#748974" stroke="#748974" stroke-opacity="0.25"/>
<rect opacity="0.75" x="11" y="56" width="5" height="5" fill="#8F815E" stroke="#8F815E" stroke-opacity="0.15"/>
<rect opacity="0.75" x="16" y="56" width="5" height="5" fill="#836F51" stroke="#836F51" stroke-opacity="0.15"/>
<rect opacity="0.9" x="16" y="51" width="5" height="5" fill="#836F51" stroke="#836F51" stroke-opacity="0.15"/>
<rect x="21" y="46" width="5" height="5" fill="#836F51" stroke="#836F51"/>
<rect opacity="0.9" x="21" y="51" width="5" height="5" fill="#836F51" stroke="#836F51" stroke-opacity="0.15"/>
<rect opacity="0.75" x="21" y="56" width="5" height="5" fill="#836F51" stroke="#836F51" stroke-opacity="0.15"/>
<rect opacity="0.9" x="26" y="51" width="5" height="5" fill="#836F51" stroke="#836F51" stroke-opacity="0.15"/>
<rect x="26" y="46" width="5" height="5" fill="#836F51" stroke="#836F51"/>
<rect x="31" y="41" width="5" height="5" fill="#836F51" stroke="#836F51"/>
<rect opacity="0.75" x="26" y="56" width="5" height="5" fill="#836F51" stroke="#836F51" stroke-opacity="0.15"/>
<rect opacity="0.75" x="26" y="76" width="5" height="5" fill="#836F51" stroke="#836F51" stroke-opacity="0.5"/>
<rect opacity="0.9" x="31" y="71" width="5" height="5" fill="#836F51" stroke="#836F51" stroke-opacity="0.25"/>
<rect opacity="0.75" x="31" y="76" width="5" height="5" fill="#836F51" stroke="#836F51" stroke-opacity="0.5"/>
<rect opacity="0.9" x="36" y="71" width="5" height="5" fill="#836F51" stroke="#836F51" stroke-opacity="0.25"/>
<rect x="41" y="66" width="5" height="5" fill="#836F51" stroke="#836F51"/>
<rect opacity="0.9" x="41" y="71" width="5" height="5" fill="#836F51" stroke="#836F51" stroke-opacity="0.25"/>
<rect x="46" y="66" width="5" height="5" fill="#836F51" stroke="#836F51"/>
<rect x="36" y="66" width="5" height="5" fill="#836F51" stroke="#836F51"/>
<rect opacity="0.75" x="36" y="76" width="5" height="5" fill="#836F51" stroke="#836F51" stroke-opacity="0.5"/>
<rect opacity="0.75" x="41" y="76" width="5" height="5" fill="#836F51" stroke="#836F51" stroke-opacity="0.5"/>
<rect opacity="0.9" x="46" y="71" width="5" height="5" fill="#836F51" stroke="#836F51" stroke-opacity="0.25"/>
<rect opacity="0.75" x="46" y="76" width="5" height="5" fill="#836F51" stroke="#836F51" stroke-opacity="0.5"/>
<rect opacity="0.5" x="46" y="81" width="5" height="5" fill="#836F51" stroke="#836F51" stroke-opacity="0.25"/>
<rect opacity="0.5" x="51" y="81" width="5" height="5" fill="#836F51" stroke="#836F51" stroke-opacity="0.25"/>
<rect opacity="0.5" x="56" y="81" width="5" height="5" fill="#836F51" stroke="#836F51" stroke-opacity="0.25"/>
<rect opacity="0.5" x="61" y="81" width="5" height="5" fill="#836F51" stroke="#836F51" stroke-opacity="0.25"/>
<rect opacity="0.5" x="66" y="81" width="5" height="5" fill="#836F51" stroke="#836F51" stroke-opacity="0.25"/>
<rect x="1" y="61" width="5" height="5" fill="#836F51" fill-opacity="0.5" stroke="#836F51" stroke-opacity="0.15"/>
<rect x="6" y="61" width="5" height="5" fill="#836F51" fill-opacity="0.5" stroke="#836F51" stroke-opacity="0.15"/>
<rect x="11" y="61" width="5" height="5" fill="#836F51" fill-opacity="0.5" stroke="#836F51" stroke-opacity="0.15"/>
<rect x="16" y="61" width="5" height="5" fill="#836F51" fill-opacity="0.5" stroke="#836F51" stroke-opacity="0.15"/>
<rect x="21" y="61" width="5" height="5" fill="#836F51" fill-opacity="0.5" stroke="#836F51" stroke-opacity="0.15"/>
<rect opacity="0.9" x="51" y="71" width="5" height="5" fill="#836F51" stroke="#836F51" stroke-opacity="0.25"/>
<rect x="51" y="66" width="5" height="5" fill="#836F51" stroke="#836F51"/>
<rect opacity="0.75" x="51" y="76" width="5" height="5" fill="#836F51" stroke="#836F51" stroke-opacity="0.5"/>
<rect x="41" y="61" width="5" height="5" fill="#836F51" stroke="#836F51"/>
<rect opacity="0.9" x="61" y="71" width="5" height="5" fill="#836F51" stroke="#836F51" stroke-opacity="0.25"/>
<rect opacity="0.75" x="61" y="76" width="5" height="5" fill="#836F51" stroke="#836F51" stroke-opacity="0.5"/>
<rect opacity="0.75" x="66" y="76" width="5" height="5" fill="#836F51" stroke="#836F51" stroke-opacity="0.5"/>
<rect opacity="0.5" x="71" y="81" width="5" height="5" fill="#836F51" stroke="#836F51" stroke-opacity="0.25"/>
<rect opacity="0.5" x="106" y="66" width="5" height="5" fill="#836F51" stroke="#836F51" stroke-opacity="0.15"/>
<rect x="111" y="51" width="5" height="5" fill="#836F51" stroke="#836F51"/>
<rect x="61" y="66" width="5" height="5" fill="#836F51" stroke="#836F51"/>
<rect x="46" y="56" width="5" height="5" fill="#836F51" stroke="#836F51"/>
<rect x="46" y="61" width="5" height="5" fill="#836F51" stroke="#836F51"/>
<rect x="51" y="56" width="5" height="5" fill="#836F51" stroke="#836F51"/>
<rect x="51" y="51" width="5" height="5" fill="#836F51" stroke="#836F51"/>
<rect x="51" y="61" width="5" height="5" fill="#836F51" stroke="#836F51"/>
<rect opacity="0.9" x="56" y="71" width="5" height="5" fill="#836F51" stroke="#836F51" stroke-opacity="0.25"/>
<rect x="56" y="66" width="5" height="5" fill="#836F51" stroke="#836F51"/>
<rect opacity="0.75" x="56" y="76" width="5" height="5" fill="#836F51" stroke="#836F51" stroke-opacity="0.5"/>
<rect x="56" y="56" width="5" height="5" fill="#836F51" stroke="#836F51"/>
<rect x="56" y="51" width="5" height="5" fill="#836F51" stroke="#836F51"/>
<rect x="56" y="46" width="5" height="5" fill="#836F51" stroke="#836F51"/>
<rect x="56" y="61" width="5" height="5" fill="#836F51" stroke="#836F51"/>
<rect opacity="0.9" x="106" y="56" width="5" height="5" fill="#836F51" stroke="#836F51" stroke-opacity="0.25"/>
<rect opacity="0.75" x="106" y="61" width="5" height="5" fill="#836F51" stroke="#836F51" stroke-opacity="0.15"/>
<rect opacity="0.5" x="96" y="66" width="5" height="5" fill="#836F51" stroke="#836F51" stroke-opacity="0.15"/>
<rect opacity="0.5" x="101" y="66" width="5" height="5" fill="#836F51" stroke="#836F51" stroke-opacity="0.15"/>
<rect opacity="0.5" x="121" y="66" width="5" height="5" fill="#836F51" stroke="#836F51" stroke-opacity="0.15"/>
<rect opacity="0.5" x="111" y="66" width="5" height="5" fill="#836F51" stroke="#836F51" stroke-opacity="0.15"/>
<rect opacity="0.5" x="116" y="66" width="5" height="5" fill="#836F51" stroke="#836F51" stroke-opacity="0.15"/>
<rect opacity="0.75" x="111" y="61" width="5" height="5" fill="#836F51" stroke="#836F51" stroke-opacity="0.15"/>
<rect opacity="0.9" x="111" y="56" width="5" height="5" fill="#836F51" stroke="#836F51" stroke-opacity="0.25"/>
<rect opacity="0.75" x="101" y="61" width="5" height="5" fill="#836F51" stroke="#836F51" stroke-opacity="0.15"/>
<rect opacity="0.75" x="76" y="46" width="5" height="5" fill="#836F51" stroke="#836F51" stroke-opacity="0.15"/>
<rect opacity="0.5" x="76" y="51" width="5" height="5" fill="#836F51" stroke="#836F51" stroke-opacity="0.15"/>
<rect opacity="0.75" x="81" y="46" width="5" height="5" fill="#836F51" stroke="#836F51" stroke-opacity="0.15"/>
<rect opacity="0.5" x="81" y="51" width="5" height="5" fill="#836F51" stroke="#836F51" stroke-opacity="0.15"/>
<rect opacity="0.75" x="116" y="61" width="5" height="5" fill="#836F51" stroke="#836F51" stroke-opacity="0.15"/>
<rect opacity="0.9" x="116" y="56" width="5" height="5" fill="#836F51" stroke="#836F51" stroke-opacity="0.25"/>
<rect opacity="0.75" x="121" y="61" width="5" height="5" fill="#836F51" stroke="#836F51" stroke-opacity="0.15"/>
<rect opacity="0.75" x="86" y="46" width="5" height="5" fill="#836F51" stroke="#836F51" stroke-opacity="0.15"/>
<rect opacity="0.5" x="86" y="51" width="5" height="5" fill="#836F51" stroke="#836F51" stroke-opacity="0.15"/>
<rect opacity="0.5" x="76" y="56" width="5" height="5" fill="#836F51" stroke="#836F51" stroke-opacity="0.15"/>
<rect opacity="0.5" x="81" y="56" width="5" height="5" fill="#836F51" stroke="#836F51" stroke-opacity="0.15"/>
<rect opacity="0.5" x="86" y="56" width="5" height="5" fill="#836F51" stroke="#836F51" stroke-opacity="0.15"/>
<rect x="71" y="36" width="5" height="5" fill="#836F51" stroke="#836F51"/>
<rect x="61" y="26" width="5" height="5" fill="#836F51" stroke="#836F51"/>
<rect x="61" y="21" width="5" height="5" fill="#836F51" stroke="#836F51"/>
<rect x="61" y="31" width="5" height="5" fill="#836F51" stroke="#836F51"/>
<rect x="66" y="36" width="5" height="5" fill="#836F51" stroke="#836F51"/>
<rect x="66" y="26" width="5" height="5" fill="#836F51" stroke="#836F51"/>
<rect x="66" y="21" width="5" height="5" fill="#836F51" stroke="#836F51"/>
<rect x="66" y="16" width="5" height="5" fill="#836F51" stroke="#836F51"/>
<rect x="66" y="31" width="5" height="5" fill="#836F51" stroke="#836F51"/>
<rect x="71" y="26" width="5" height="5" fill="#836F51" stroke="#836F51"/>
<rect x="71" y="31" width="5" height="5" fill="#836F51" stroke="#836F51"/>
<rect opacity="0.9" x="71" y="41" width="5" height="5" fill="#836F51" stroke="#836F51" stroke-opacity="0.25"/>
<rect x="76" y="36" width="5" height="5" fill="#836F51" stroke="#836F51"/>
<rect opacity="0.9" x="76" y="41" width="5" height="5" fill="#836F51" stroke="#836F51" stroke-opacity="0.25"/>
<rect opacity="0.9" x="81" y="41" width="5" height="5" fill="#836F51" stroke="#836F51" stroke-opacity="0.15"/>
<rect x="36" y="41" width="5" height="5" fill="#836F51" stroke="#836F51"/>
<rect x="31" y="46" width="5" height="5" fill="#836F51" stroke="#836F51"/>
<rect opacity="0.9" x="31" y="51" width="5" height="5" fill="#836F51" stroke="#836F51" stroke-opacity="0.15"/>
<rect x="36" y="46" width="5" height="5" fill="#836F51" stroke="#836F51"/>
<rect x="36" y="36" width="5" height="5" fill="#836F51" stroke="#836F51"/>
<rect x="41" y="31" width="5" height="5" fill="#836F51" stroke="#836F51"/>
<rect x="41" y="36" width="5" height="5" fill="#836F51" stroke="#836F51"/>
<rect x="26" y="41" width="5" height="5" fill="#836F51" stroke="#836F51"/>
<rect x="31" y="31" width="5" height="5" fill="#836F51" stroke="#836F51"/>
<rect x="31" y="36" width="5" height="5" fill="#836F51" stroke="#836F51"/>
<rect x="36" y="31" width="5" height="5" fill="#836F51" stroke="#836F51"/>
<rect x="36" y="26" width="5" height="5" fill="#836F51" stroke="#836F51"/>
<rect x="36" y="21" width="5" height="5" fill="#836F51" stroke="#836F51"/>
<rect x="41" y="26" width="5" height="5" fill="#836F51" stroke="#836F51"/>
<rect x="41" y="41" width="5" height="5" fill="#836F51" stroke="#836F51"/>
<rect opacity="0.75" x="21" y="76" width="5" height="5" fill="#8F815E" stroke="#8F815E" stroke-opacity="0.5"/>
<rect opacity="0.9" x="26" y="71" width="5" height="5" fill="#8F815E" stroke="#8F815E" stroke-opacity="0.25"/>
<rect x="31" y="66" width="5" height="5" fill="#8F815E" stroke="#8F815E"/>
<rect x="36" y="61" width="5" height="5" fill="#8F815E" stroke="#8F815E"/>
<rect x="41" y="56" width="5" height="5" fill="#8F815E" stroke="#8F815E"/>
<rect x="46" y="51" width="5" height="5" fill="#8F815E" stroke="#8F815E"/>
<rect x="51" y="46" width="5" height="5" fill="#8F815E" stroke="#8F815E"/>
<rect x="56" y="41" width="5" height="5" fill="#8F815E" stroke="#8F815E"/>
<rect x="61" y="46" width="5" height="5" fill="#8F815E" stroke="#8F815E"/>
<rect x="61" y="51" width="5" height="5" fill="#8F815E" stroke="#8F815E"/>
<rect x="61" y="56" width="5" height="5" fill="#8F815E" stroke="#8F815E"/>
<rect x="61" y="61" width="5" height="5" fill="#8F815E" stroke="#8F815E"/>
<rect x="66" y="66" width="5" height="5" fill="#8F815E" stroke="#8F815E"/>
<rect opacity="0.9" x="66" y="71" width="5" height="5" fill="#8F815E" stroke="#8F815E" stroke-opacity="0.25"/>
<rect opacity="0.75" x="71" y="76" width="5" height="5" fill="#8F815E" stroke="#8F815E" stroke-opacity="0.5"/>
<rect opacity="0.5" x="76" y="81" width="5" height="5" fill="#8F815E" stroke="#8F815E" stroke-opacity="0.25"/>
<rect opacity="0.9" x="11" y="51" width="5" height="5" fill="#8F815E" stroke="#8F815E"/>
<rect x="16" y="46" width="5" height="5" fill="#8F815E" stroke="#8F815E"/>
<rect x="21" y="41" width="5" height="5" fill="#8F815E" stroke="#8F815E"/>
<rect x="26" y="36" width="5" height="5" fill="#8F815E" stroke="#8F815E"/>
<rect x="26" y="31" width="5" height="5" fill="#8F815E" stroke="#8F815E"/>
<rect x="31" y="26" width="5" height="5" fill="#8F815E" stroke="#8F815E"/>
<rect x="31" y="21" width="5" height="5" fill="#8F815E" stroke="#8F815E"/>
<rect x="36" y="16" width="5" height="5" fill="#8F815E" stroke="#8F815E"/>
<rect x="41" y="16" width="5" height="5" fill="#8F815E" stroke="#8F815E"/>
<rect x="41" y="21" width="5" height="5" fill="#8F815E" stroke="#8F815E"/>
<rect x="46" y="26" width="5" height="5" fill="#8F815E" stroke="#8F815E"/>
<rect x="46" y="31" width="5" height="5" fill="#8F815E" stroke="#8F815E"/>
<rect x="56" y="26" width="5" height="5" fill="#8F815E" stroke="#8F815E"/>
<rect x="56" y="21" width="5" height="5" fill="#8F815E" stroke="#8F815E"/>
<rect x="61" y="16" width="5" height="5" fill="#8F815E" stroke="#8F815E"/>
<rect x="66" y="11" width="5" height="5" fill="#8F815E" stroke="#8F815E"/>
<rect x="71" y="16" width="5" height="5" fill="#8F815E" stroke="#8F815E"/>
<rect x="71" y="21" width="5" height="5" fill="#8F815E" stroke="#8F815E"/>
<rect x="76" y="26" width="5" height="5" fill="#8F815E" stroke="#8F815E"/>
<rect x="76" y="31" width="5" height="5" fill="#8F815E" stroke="#8F815E"/>
<rect x="81" y="36" width="5" height="5" fill="#8F815E" stroke="#8F815E"/>
<rect opacity="0.9" x="86" y="41" width="5" height="5" fill="#8F815E" stroke="#8F815E"/>
<rect opacity="0.75" x="91" y="46" width="5" height="5" fill="#8F815E" stroke="#8F815E" stroke-opacity="0.25"/>
<rect opacity="0.5" x="91" y="51" width="5" height="5" fill="#8F815E" stroke="#8F815E" stroke-opacity="0.5"/>
<rect opacity="0.5" x="91" y="66" width="5" height="5" fill="#8F815E" stroke="#8F815E" stroke-opacity="0.15"/>
<rect opacity="0.75" x="96" y="61" width="5" height="5" fill="#8F815E" stroke="#8F815E" stroke-opacity="0.15"/>
<rect opacity="0.9" x="101" y="56" width="5" height="5" fill="#8F815E" stroke="#8F815E" stroke-opacity="0.5"/>
<rect x="106" y="51" width="5" height="5" fill="#8F815E" stroke="#8F815E"/>
<rect x="111" y="46" width="5" height="5" fill="#8F815E" stroke="#8F815E"/>
<rect x="116" y="51" width="5" height="5" fill="#8F815E" stroke="#8F815E"/>
<rect opacity="0.9" x="121" y="56" width="5" height="5" fill="#8F815E" stroke="#8F815E" stroke-opacity="0.5"/>
<rect opacity="0.9" x="6" y="51" width="5" height="5" fill="#748974" stroke="#748974"/>
<rect x="11" y="46" width="5" height="5" fill="#748974" stroke="#748974"/>
<rect x="16" y="41" width="5" height="5" fill="#748974" stroke="#748974"/>
<rect x="21" y="36" width="5" height="5" fill="#748974" stroke="#748974"/>
<rect x="21" y="31" width="5" height="5" fill="#748974" stroke="#748974"/>
<rect x="26" y="26" width="5" height="5" fill="#748974" stroke="#748974"/>
<rect x="26" y="21" width="5" height="5" fill="#748974" stroke="#748974"/>
<rect x="31" y="16" width="5" height="5" fill="#748974" stroke="#748974"/>
<rect x="36" y="11" width="5" height="5" fill="#748974" stroke="#748974"/>
<rect x="41" y="11" width="5" height="5" fill="#748974" stroke="#748974"/>
<rect x="51" y="21" width="5" height="5" fill="#748974" stroke="#748974"/>
<rect x="56" y="16" width="5" height="5" fill="#748974" stroke="#748974"/>
<rect x="61" y="11" width="5" height="5" fill="#748974" stroke="#748974"/>
<rect x="66" y="6" width="5" height="5" fill="#748974" stroke="#748974"/>
<rect x="71" y="6" width="5" height="5" fill="#748974" stroke="#748974"/>
<rect x="71" y="11" width="5" height="5" fill="#748974" stroke="#748974"/>
<rect x="76" y="16" width="5" height="5" fill="#748974" stroke="#748974"/>
<rect x="76" y="21" width="5" height="5" fill="#748974" stroke="#748974"/>
<rect x="81" y="26" width="5" height="5" fill="#748974" stroke="#748974"/>
<rect x="81" y="31" width="5" height="5" fill="#748974" stroke="#748974"/>
<rect x="86" y="36" width="5" height="5" fill="#748974" stroke="#748974"/>
<rect opacity="0.9" x="91" y="41" width="5" height="5" fill="#748974" stroke="#748974"/>
<rect opacity="0.75" x="96" y="46" width="5" height="5" fill="#748974" stroke="#748974"/>
<rect opacity="0.75" x="91" y="61" width="5" height="5" fill="#748974" stroke="#748974" stroke-opacity="0.15"/>
<rect opacity="0.9" x="96" y="56" width="5" height="5" fill="#748974" stroke="#748974"/>
<rect x="101" y="51" width="5" height="5" fill="#748974" stroke="#748974"/>
<rect x="106" y="46" width="5" height="5" fill="#748974" stroke="#748974"/>
<rect x="111" y="41" width="5" height="5" fill="#748974" stroke="#748974"/>
<rect x="116" y="41" width="5" height="5" fill="#748974" stroke="#748974"/>
<rect x="116" y="46" width="5" height="5" fill="#748974" stroke="#748974"/>
<rect x="121" y="51" width="5" height="5" fill="#748974" stroke="#748974"/>
<rect x="46" y="11" width="5" height="5" fill="#6282A0" stroke="#6282A0"/>
<rect x="46" y="16" width="5" height="5" fill="#6282A0" stroke="#6282A0"/>
<rect x="51" y="16" width="5" height="5" fill="#6282A0" stroke="#6282A0"/>
<rect x="56" y="11" width="5" height="5" fill="#6282A0" stroke="#6282A0"/>
<rect x="61" y="6" width="5" height="5" fill="#6282A0" stroke="#6282A0"/>
<rect x="66" y="1" width="5" height="5" fill="#6282A0" stroke="#6282A0"/>
<rect x="76" y="6" width="5" height="5" fill="#6282A0" stroke="#6282A0"/>
<rect x="76" y="11" width="5" height="5" fill="#6282A0" stroke="#6282A0"/>
<rect x="81" y="16" width="5" height="5" fill="#6282A0" stroke="#6282A0"/>
<rect x="81" y="21" width="5" height="5" fill="#6282A0" stroke="#6282A0"/>
<rect x="86" y="26" width="5" height="5" fill="#6282A0" stroke="#6282A0"/>
<rect x="86" y="31" width="5" height="5" fill="#6282A0" stroke="#6282A0"/>
<rect x="91" y="36" width="5" height="5" fill="#6282A0" stroke="#6282A0"/>
<rect opacity="0.9" x="96" y="41" width="5" height="5" fill="#6282A0" stroke="#6282A0"/>
<rect x="96" y="51" width="5" height="5" fill="#6282A0" stroke="#6282A0"/>
<rect opacity="0.9" x="91" y="56" width="5" height="5" fill="#6282A0" stroke="#6282A0"/>
<rect x="101" y="46" width="5" height="5" fill="#6282A0" stroke="#6282A0"/>
<rect x="106" y="41" width="5" height="5" fill="#6282A0" stroke="#6282A0"/>
<rect x="111" y="36" width="5" height="5" fill="#6282A0" stroke="#6282A0"/>
<rect x="116" y="36" width="5" height="5" fill="#6282A0" stroke="#6282A0"/>
<rect x="121" y="41" width="5" height="5" fill="#6282A0" stroke="#6282A0"/>
<rect x="121" y="46" width="5" height="5" fill="#6282A0" stroke="#6282A0"/>
<rect x="71" y="1" width="5" height="5" fill="#6282A0" stroke="#6282A0"/>
<rect x="46" y="21" width="5" height="5" fill="#6282A0" stroke="#6282A0"/>
<rect x="51" y="26" width="5" height="5" fill="#6282A0" stroke="#6282A0"/>
<rect opacity="0.9" x="16" y="71" width="5" height="5" fill="#6282A0" stroke="#6282A0"/>
<rect x="21" y="66" width="5" height="5" fill="#6282A0" stroke="#6282A0"/>
<rect x="26" y="61" width="5" height="5" fill="#5D8E98" stroke="#5D8E98"/>
<rect x="31" y="56" width="5" height="5" fill="#5D8E98" stroke="#5D8E98"/>
<rect x="41" y="46" width="5" height="5" fill="#649A96" stroke="#649A96"/>
<rect x="46" y="41" width="5" height="5" fill="#649A96" stroke="#649A96"/>
<rect x="46" y="36" width="5" height="5" fill="#649A96" stroke="#649A96"/>
<rect x="51" y="31" width="5" height="5" fill="#649A96" stroke="#649A96"/>
<rect x="56" y="31" width="5" height="5" fill="#649A96" stroke="#649A96"/>
<rect x="61" y="36" width="5" height="5" fill="#649A96" stroke="#649A96"/>
<rect x="66" y="41" width="5" height="5" fill="#649A96" stroke="#649A96"/>
<rect x="71" y="46" width="5" height="5" fill="#5D8E98" stroke="#5D8E98"/>
<rect x="71" y="51" width="5" height="5" fill="#6282A0" stroke="#6282A0"/>
<rect x="71" y="56" width="5" height="5" fill="#6282A0" stroke="#6282A0"/>
<rect x="71" y="61" width="5" height="5" fill="#6282A0" stroke="#6282A0"/>
<rect x="76" y="66" width="5" height="5" fill="#6282A0" stroke="#6282A0"/>
<rect opacity="0.9" x="76" y="71" width="5" height="5" fill="#6282A0" stroke="#6282A0"/>
<rect opacity="0.75" x="81" y="76" width="5" height="5" fill="#6282A0" stroke="#6282A0"/>
<rect opacity="0.5" x="86" y="81" width="5" height="5" fill="#6282A0" stroke="#6282A0"/>
<rect x="36" y="51" width="5" height="5" fill="#5D8E98" stroke="#5D8E98"/>
</svg>
