<svg width="725" height="733" viewBox="0 0 725 733" fill="none" xmlns="http://www.w3.org/2000/svg">
<path fill-rule="evenodd" clip-rule="evenodd" d="M262 401.5C262 376.011 256.941 351.703 247.772 329.526C303.191 297.966 347.387 248.966 372.891 189.994C361.543 171.517 355 149.773 355 126.5C355 90.8666 370.34 58.816 394.775 36.5913C393.366 25.1381 391.3 13.888 388.616 2.87985C402.138 0.981506 415.954 -9.15527e-05 430 -9.15527e-05C449.326 -9.15527e-05 468.218 1.85828 486.507 5.40607C502.005 6.66953 516.681 10.8418 529.987 17.3762C643.7 58.3367 725 167.174 725 295C725 457.924 592.924 590 430 590C351.744 590 280.605 559.529 227.8 509.804C249.349 479.16 262 441.807 262 401.5Z" fill="#FFEFD0"/>
<circle cx="178" cy="683" r="50" fill="#FFEFD0"/>
<path d="M136.5 654C158.5 613 230 507.5 230 507.5L286.5 512.5L297.5 559.5C297.5 559.5 280.698 570.218 269 592C254.5 619 225.5 698 225.5 698C225.5 698 114.5 695 136.5 654Z" fill="#FFEFD0" stroke="#FFEFD0"/>
<ellipse cx="35" cy="526.5" rx="34" ry="33.5" fill="#FFEFD0"/>
<path d="M71.5 342C128.133 302.698 247.5 328.5 247.5 328.5L318.5 368L271 424.5C271 424.5 123.764 356.408 80.5 417C55.3766 452.185 68 527 68 527H1.5C1.5 527 8.03907 386.041 71.5 342Z" fill="#FFEFD0" stroke="#FFEFD0"/>
<path fill-rule="evenodd" clip-rule="evenodd" d="M706.574 192.145C718.489 224.171 725 258.825 725 295C725 304.261 724.573 313.423 723.738 322.467C721.395 322.712 719.028 322.88 716.638 322.965C673.857 324.5 636.236 299.517 619.416 262.665C627.808 223.605 661.838 193.701 703.585 192.203C704.585 192.167 705.581 192.148 706.574 192.145Z" fill="#F99129"/>
<path fill-rule="evenodd" clip-rule="evenodd" d="M542.782 15.2606C516.864 20.0522 491.988 27.2284 468.34 36.5208C472.699 35.3419 477.141 34.3306 481.659 33.4953C523.864 25.6929 565.287 34.6286 599.095 55.6012C598.146 39.8913 598.128 24.2912 598.998 8.86239C580.392 9.6691 561.619 11.7782 542.782 15.2606Z" fill="#F99129"/>
<path fill-rule="evenodd" clip-rule="evenodd" d="M389.837 127.428C391.516 127.147 393.241 127 395.001 127C411.979 127 425.769 140.648 425.998 157.572C424.318 157.853 422.593 158 420.834 158C403.856 158 390.066 144.352 389.837 127.428Z" fill="#F99129"/>
<path fill-rule="evenodd" clip-rule="evenodd" d="M531.721 152.327C523.23 162.516 510.445 169 496.146 169C485.1 169 474.957 165.13 467 158.673C475.49 148.484 488.275 142 502.575 142C513.621 142 523.763 145.87 531.721 152.327Z" fill="#2E1400"/>
<path fill-rule="evenodd" clip-rule="evenodd" d="M325.972 356.815C341.329 372.081 363.165 386.518 389.036 397.322C448.151 422.009 505.947 418.377 518.127 389.21C530.307 360.043 492.26 316.386 433.145 291.699C417.46 285.149 401.867 280.592 387.195 277.977L325.972 356.815Z" fill="#2E1400"/>
</svg>
