<svg width="466" height="336" viewBox="0 0 466 336" fill="none" xmlns="http://www.w3.org/2000/svg">
<circle cx="207" cy="27.9997" r="28" fill="#570039"/>
<circle cx="330" cy="35.9997" r="28" fill="#570039"/>
<path fill-rule="evenodd" clip-rule="evenodd" d="M318.5 55.9997C322.394 55.9997 326.245 56.1844 330.045 56.5455L351.145 175.047C376.659 176.169 397 197.209 397 223C397 229.129 395.851 234.989 393.758 240.378C388.474 239.472 383.042 239 377.5 239C355.043 239 334.397 246.751 318.09 259.724C318.04 259.682 317.99 259.64 317.941 259.598C306.427 268.797 296.921 280.403 290.184 293.654C237.296 280.917 198 233.297 198 176.5C198 109.949 251.95 55.9997 318.5 55.9997Z" fill="#570039"/>
<path fill-rule="evenodd" clip-rule="evenodd" d="M342.404 119.038L342.456 119.097L342.51 118.974L342.575 118.829C350.969 108.507 356 95.3408 356 80.9997C356 75.9137 355.367 70.9755 354.176 66.2595C338.435 31.3214 303.308 6.99969 262.5 6.99969C219.048 6.99969 182.036 34.5761 168.012 73.1826C168.234 84.6903 171.696 95.4045 177.524 104.451C177.557 104.582 177.589 104.713 177.622 104.844L177.758 104.81C188.472 121.183 206.973 132 228 132C237.932 132 247.3 129.587 255.55 125.315C266.217 135.057 280.415 141 296 141C314.706 141 331.413 132.439 342.417 119.022L342.404 119.038Z" fill="#570039"/>
<path d="M150.798 122.214C144.488 116.422 149.073 105.922 157.611 106.613L218.613 111.55C224.781 112.049 228.617 118.48 226.125 124.145L210.125 160.516C207.642 166.161 200.345 167.693 195.801 163.522L150.798 122.214Z" fill="#570039"/>
<path d="M367.708 117.494C376.083 117.599 379.787 128.083 373.337 133.425L349.212 153.404C344.392 157.396 337.07 155.372 334.985 149.471L327.789 129.1C325.704 123.199 330.129 117.025 336.387 117.103L367.708 117.494Z" fill="#570039"/>
<path fill-rule="evenodd" clip-rule="evenodd" d="M318.09 259.724C334.081 247.002 354.246 239.302 376.199 239.008C376.389 220.156 372.032 198.651 362.972 177.065C359.205 175.921 355.242 175.227 351.145 175.047L345.783 144.933C340.599 137.126 335.005 129.987 329.151 123.61C310.527 131.37 287.034 136 261.5 136C247.16 136 233.463 134.54 220.912 131.885C216.046 157.612 221.705 191.537 238.44 224.451C252.92 252.932 272.898 275.158 293.342 287.903C299.768 277.033 308.125 267.441 317.941 259.598C317.99 259.64 318.04 259.682 318.09 259.724Z" fill="#ED6892"/>
<path fill-rule="evenodd" clip-rule="evenodd" d="M110.222 143.477C110.222 143.477 95.2606 135.195 76.716 132.284C73.0175 131.443 69.1683 131 65.2154 131C61.2421 131 57.3734 131.448 53.6573 132.297C32.2248 136.702 20.6545 154.617 20.6545 154.617L20.6799 154.664C6.58454 174.888 -1.1676 199.763 0.143243 226.289C3.28932 289.952 57.4487 339.011 121.112 335.865C184.774 332.718 233.833 278.559 230.687 214.896C230.614 213.412 230.512 211.936 230.384 210.469L213.381 205.687C204.11 191.821 188.311 182.69 170.379 182.69C161.319 182.69 152.803 185.021 145.399 189.116C142.999 189.571 140.763 189.82 138.741 189.82C114.678 189.82 110.222 143.477 110.222 143.477Z" fill="#570039"/>
<path fill-rule="evenodd" clip-rule="evenodd" d="M249.61 76.7868C250.399 73.2239 250.546 69.456 249.943 65.6334C247.36 49.2673 231.999 38.0935 215.633 40.676C199.267 43.2585 188.094 58.6193 190.676 74.9853C190.904 76.4274 191.23 77.8292 191.648 79.1848C197.558 76.7524 204.169 74.881 211.237 73.7656C225.714 71.4813 239.34 72.8052 249.61 76.7868Z" fill="#ED6892"/>
<path fill-rule="evenodd" clip-rule="evenodd" d="M327.293 90.1481C329.022 86.9349 330.191 83.3497 330.652 79.5074C332.627 63.0569 320.892 48.1204 304.441 46.1457C287.991 44.171 273.054 55.906 271.08 72.3564C270.906 73.8059 270.838 75.2437 270.871 76.6619C277.219 75.9318 284.09 75.9325 291.195 76.7854C305.746 78.5321 318.496 83.5187 327.293 90.1481Z" fill="#ED6892"/>
<circle cx="124" cy="122" r="9" fill="#AE003A"/>
<circle cx="434" cy="225" r="9" fill="#AE003A"/>
<circle cx="146" cy="78.9997" r="13" fill="#AE003A"/>
<circle cx="389" cy="275" r="13" fill="#AE003A"/>
<circle cx="92" cy="72.9997" r="23" fill="#AE003A"/>
<circle cx="443" cy="275" r="23" fill="#AE003A"/>
</svg>
