<svg width="39" height="79" viewBox="0 0 39 79" fill="none" xmlns="http://www.w3.org/2000/svg">
<path d="M8.58813 24.9561C11.9927 26.6584 15.7728 22.5438 17.5314 20.199C18.6228 18.7439 20.1436 18.1016 21.3793 16.6894C21.923 16.0681 23.2528 13.9914 22.669 14.5751C22.1992 15.045 22.0494 16.4162 21.9079 17.0488C21.523 18.7697 21.5292 22.0239 23.4725 22.863C24.3662 23.2489 25.1401 23.2436 26.0941 23.2436C26.7666 23.2436 26.4137 23.0137 26.0518 22.5459C24.937 21.1042 23.8342 19.622 22.6056 18.2751C20.5319 16.0015 17.8995 16.9982 15.2903 17.7254C13.2445 18.2955 11.8987 16.2981 11.9392 14.3531C11.9648 13.1273 12.5423 12.4993 13.5355 11.8372C13.9441 11.5647 15.7458 11.2606 14.8252 11.7209C13.9735 12.1467 13.1073 11.9886 12.6898 11.1289C11.7051 9.10165 13.7238 6.2391 15.2269 5.061C16.6658 3.93323 22.2421 2.51986 20.5865 6.24497C20.0405 7.47354 22.6096 4.45592 23.7473 3.73959C25.0952 2.89092 26.5831 1.78563 28.2401 2.32304C29.1503 2.61826 29.7618 3.6708 29.6672 4.617C29.6326 4.96338 28.6337 7.04839 29.2021 7.04839C30.6638 7.04839 31.9921 6.49362 33.42 7.10125C34.9532 7.75368 34.6032 8.73129 33.4517 9.55378C31.4293 10.9983 29.0061 11.8971 26.8447 13.1163C26.6335 13.2354 25.7136 13.8726 25.7136 13.2537C25.7136 12.8384 25.6503 13.9749 25.6079 14.1206C25.4431 14.6853 24.9524 15.243 24.9524 15.8225" stroke="black" stroke-width="3" stroke-linecap="round"/>
<path d="M2.87965 39.4177C2.87965 45.5821 3.43317 51.4288 2.32994 57.5579C1.9462 59.6898 1.1292 60.5165 3.11221 61.6384C8.94201 64.9369 12.905 69.7933 17.1403 74.8948C17.5055 75.3347 18.2765 76.9305 18.8634 77.1359C19.1944 77.2517 19.5714 76.7681 19.7514 76.5862C21.8802 74.434 23.7825 72.023 25.5867 69.5986C27.9644 66.4036 30.0048 62.956 32.7223 60.021C33.7197 58.9438 34.9697 58.0929 35.9043 56.9659C37.0772 55.5515 36.4079 52.4663 36.3482 50.7818C36.145 45.0415 34.7438 39.4071 34.6568 33.6669C34.6445 32.8524 34.4997 32.0387 34.2763 31.2566C34.0916 30.6102 32.3721 31.4664 32.014 31.5738C28.7376 32.5567 25.4712 33.5874 22.1828 34.5337C18.4835 35.5983 14.8931 36.0052 11.1041 36.4788C10.1834 36.5939 6.50135 38.1902 5.77617 37.6628C4.45804 36.7042 3.79018 38.8898 3.66191 39.7876C3.55864 40.5105 3.6783 41.1871 3.78877 41.8913C3.95859 42.9739 3.44109 43.8764 3.28135 44.9147C3.13162 45.888 3.00363 46.8867 4.06363 47.2192C4.8918 47.4791 5.88173 47.2562 6.70644 47.1347C8.74937 46.8337 10.792 46.5492 12.8378 46.2678C16.3675 45.7823 19.8596 45.203 23.409 44.8513C26.5214 44.5428 29.777 43.7942 32.902 43.7942C33.5527 43.7942 34.5098 43.7653 35.0374 43.4136" stroke="black" stroke-width="3" stroke-linecap="round"/>
</svg>
