<svg width="300" height="300" viewBox="0 0 300 300" fill="none" xmlns="http://www.w3.org/2000/svg">
<rect width="5" height="5" transform="matrix(-1 0 0 1 230 110)" fill="#F5DEB1" stroke="#F5DEB1"/>
<rect width="5" height="5" transform="matrix(-1 0 0 1 235 110)" fill="#F5DEB1" stroke="#F5DEB1"/>
<rect width="5" height="5" transform="matrix(-1 0 0 1 240 110)" fill="#F5DEB1" stroke="#F5DEB1"/>
<rect width="5" height="5" transform="matrix(-1 0 0 1 245 110)" fill="#F5DEB1" stroke="#F5DEB1"/>
<rect width="5" height="5" transform="matrix(-1 0 0 1 250 105)" fill="#F5DEB1" stroke="#F5DEB1"/>
<rect width="5" height="5" transform="matrix(-1 0 0 1 255 100)" fill="#F5DEB1" stroke="#F5DEB1"/>
<rect width="5" height="5" transform="matrix(-1 0 0 1 260 100)" fill="#F5DEB1" stroke="#F5DEB1"/>
<rect width="5" height="5" transform="matrix(-1 0 0 1 265 95)" fill="#F5DEB1" stroke="#F5DEB1"/>
<rect width="5" height="5" transform="matrix(-1 0 0 1 270 90)" fill="#F5DEB1" stroke="#F5DEB1"/>
<rect width="5" height="5" transform="matrix(-1 0 0 1 255 90)" fill="#616DD7" stroke="#616DD7"/>
<rect width="5" height="5" transform="matrix(-1 0 0 1 230 75)" fill="#F5DEB1" stroke="#F5DEB1"/>
<rect width="5" height="5" transform="matrix(-1 0 0 1 225 80)" fill="#F5DEB1" stroke="#F5DEB1"/>
<rect width="5" height="5" transform="matrix(-1 0 0 1 220 85)" fill="#F5DEB1" stroke="#F5DEB1"/>
<rect width="5" height="5" transform="matrix(-1 0 0 1 220 90)" fill="#F5DEB1" stroke="#F5DEB1"/>
<rect width="5" height="5" transform="matrix(-1 0 0 1 215 95)" fill="#F5DEB1" stroke="#F5DEB1"/>
<rect width="5" height="5" transform="matrix(-1 0 0 1 215 100)" fill="#F5DEB1" stroke="#F5DEB1"/>
<rect width="5" height="5" transform="matrix(-1 0 0 1 220 105)" fill="#F5DEB1" stroke="#F5DEB1"/>
<rect width="5" height="5" transform="matrix(-1 0 0 1 225 110)" fill="#F5DEB1" stroke="#F5DEB1"/>
<rect width="5" height="5" transform="matrix(-1 0 0 1 230 105)" fill="#F5DEB1" stroke="#F5DEB1"/>
<rect width="5" height="5" transform="matrix(-1 0 0 1 235 105)" fill="#F5DEB1" stroke="#F5DEB1"/>
<rect width="5" height="5" transform="matrix(-1 0 0 1 240 105)" fill="#F5DEB1" stroke="#F5DEB1"/>
<rect width="5" height="5" transform="matrix(-1 0 0 1 225 105)" fill="#F5DEB1" stroke="#F5DEB1"/>
<rect width="5" height="5" transform="matrix(-1 0 0 1 250 100)" fill="#F5DEB1" stroke="#F5DEB1"/>
<rect width="5" height="5" transform="matrix(-1 0 0 1 220 100)" fill="#A55EAB" stroke="#A55EAB"/>
<rect width="5" height="5" transform="matrix(-1 0 0 1 230 100)" fill="#A55EAB" stroke="#A55EAB"/>
<rect width="5" height="5" transform="matrix(-1 0 0 1 235 100)" fill="#A55EAB" stroke="#A55EAB"/>
<rect width="5" height="5" transform="matrix(-1 0 0 1 240 100)" fill="#F5DEB1" stroke="#F5DEB1"/>
<rect width="5" height="5" transform="matrix(-1 0 0 1 245 100)" fill="#F5DEB1" stroke="#F5DEB1"/>
<rect width="5" height="5" transform="matrix(-1 0 0 1 250 115)" fill="#F5DEB1" stroke="#F5DEB1"/>
<rect width="5" height="5" transform="matrix(-1 0 0 1 255 115)" fill="#F5DEB1" stroke="#F5DEB1"/>
<rect width="5" height="5" transform="matrix(-1 0 0 1 260 115)" fill="#F5DEB1" stroke="#F5DEB1"/>
<rect width="5" height="5" transform="matrix(-1 0 0 1 245 115)" fill="#F5DEB1" stroke="#F5DEB1"/>
<rect width="5" height="5" transform="matrix(-1 0 0 1 250 110)" fill="#F5DEB1" stroke="#F5DEB1"/>
<rect width="5" height="5" transform="matrix(-1 0 0 1 230 90)" fill="#A55EAB" stroke="#A55EAB"/>
<rect width="5" height="5" transform="matrix(-1 0 0 1 255 110)" fill="#F5DEB1" stroke="#F5DEB1"/>
<rect width="5" height="5" transform="matrix(-1 0 0 1 260 110)" fill="#F5DEB1" stroke="#F5DEB1"/>
<rect width="5" height="5" transform="matrix(-1 0 0 1 265 110)" fill="#F5DEB1" stroke="#F5DEB1"/>
<rect width="5" height="5" transform="matrix(-1 0 0 1 265 105)" fill="#F5DEB1" stroke="#F5DEB1"/>
<rect width="5" height="5" transform="matrix(-1 0 0 1 270 105)" fill="#F5DEB1" stroke="#F5DEB1"/>
<rect width="5" height="5" transform="matrix(-1 0 0 1 265 100)" fill="#F5DEB1" stroke="#F5DEB1"/>
<rect width="5" height="5" transform="matrix(-1 0 0 1 270 100)" fill="#F5DEB1" stroke="#F5DEB1"/>
<rect width="5" height="5" transform="matrix(-1 0 0 1 225 100)" fill="#F5DEB1" stroke="#F5DEB1"/>
<rect width="5" height="5" transform="matrix(-1 0 0 1 250 95)" fill="#616DD7" stroke="#616DD7"/>
<rect width="5" height="5" transform="matrix(-1 0 0 1 220 95)" fill="#F5DEB1" stroke="#F5DEB1"/>
<rect width="5" height="5" transform="matrix(-1 0 0 1 230 95)" fill="#A55EAB" stroke="#A55EAB"/>
<rect width="5" height="5" transform="matrix(-1 0 0 1 235 95)" fill="#A55EAB" stroke="#A55EAB"/>
<rect width="5" height="5" transform="matrix(-1 0 0 1 240 95)" fill="#F5DEB1" stroke="#F5DEB1"/>
<rect width="5" height="5" transform="matrix(-1 0 0 1 245 95)" fill="#F5DEB1" stroke="#F5DEB1"/>
<rect width="5" height="5" transform="matrix(-1 0 0 1 225 95)" fill="#F5DEB1" stroke="#F5DEB1"/>
<rect width="5" height="5" transform="matrix(-1 0 0 1 255 95)" fill="#616DD7" stroke="#616DD7"/>
<rect width="5" height="5" transform="matrix(-1 0 0 1 260 90)" fill="#F5DEB1" stroke="#F5DEB1"/>
<rect width="5" height="5" transform="matrix(-1 0 0 1 260 95)" fill="#F5DEB1" stroke="#F5DEB1"/>
<rect width="5" height="5" transform="matrix(-1 0 0 1 260 80)" fill="#F5DEB1" stroke="#F5DEB1"/>
<rect width="5" height="5" transform="matrix(-1 0 0 1 230 85)" fill="#F5DEB1" stroke="#F5DEB1"/>
<rect width="5" height="5" transform="matrix(-1 0 0 1 235 85)" fill="#F5DEB1" stroke="#F5DEB1"/>
<rect width="5" height="5" transform="matrix(-1 0 0 1 240 85)" fill="#4CB243" stroke="#4CB243"/>
<rect width="5" height="5" transform="matrix(-1 0 0 1 245 85)" fill="#4CB243" stroke="#4CB243"/>
<rect width="5" height="5" transform="matrix(-1 0 0 1 225 85)" fill="#F5DEB1" stroke="#F5DEB1"/>
<rect width="5" height="5" transform="matrix(-1 0 0 1 250 80)" fill="#F5DEB1" stroke="#F5DEB1"/>
<rect width="5" height="5" transform="matrix(-1 0 0 1 250 85)" fill="#F5DEB1" stroke="#F5DEB1"/>
<rect width="5" height="5" transform="matrix(-1 0 0 1 230 80)" fill="#F5DEB1" stroke="#F5DEB1"/>
<rect width="5" height="5" transform="matrix(-1 0 0 1 235 80)" fill="#4CB243" stroke="#4CB243"/>
<rect width="5" height="5" transform="matrix(-1 0 0 1 240 80)" fill="#4CB243" stroke="#4CB243"/>
<rect width="5" height="5" transform="matrix(-1 0 0 1 245 80)" fill="#4CB243" stroke="#4CB243"/>
<rect width="5" height="5" transform="matrix(-1 0 0 1 250 75)" fill="#F5DEB1" stroke="#F5DEB1"/>
<rect width="5" height="5" transform="matrix(-1 0 0 1 265 80)" fill="#F5DEB1" stroke="#F5DEB1"/>
<rect width="5" height="5" transform="matrix(-1 0 0 1 235 75)" fill="#F5DEB1" stroke="#F5DEB1"/>
<rect width="5" height="5" transform="matrix(-1 0 0 1 240 75)" fill="#F5DEB1" stroke="#F5DEB1"/>
<rect width="5" height="5" transform="matrix(-1 0 0 1 245 75)" fill="#F5DEB1" stroke="#F5DEB1"/>
<rect width="5" height="5" transform="matrix(-1 0 0 1 255 75)" fill="#F5DEB1" stroke="#F5DEB1"/>
<rect width="5" height="5" transform="matrix(-1 0 0 1 260 75)" fill="#F5DEB1" stroke="#F5DEB1"/>
<rect width="5" height="5" transform="matrix(-1 0 0 1 255 80)" fill="#F5DEB1" stroke="#F5DEB1"/>
<rect width="5" height="5" transform="matrix(-1 0 0 1 255 85)" fill="#F5DEB1" stroke="#F5DEB1"/>
<rect width="5" height="5" transform="matrix(-1 0 0 1 260 85)" fill="#F5DEB1" stroke="#F5DEB1"/>
<rect width="5" height="5" transform="matrix(-1 0 0 1 265 85)" fill="#F5DEB1" stroke="#F5DEB1"/>
<rect width="5" height="5" transform="matrix(-1 0 0 1 245 105)" fill="#616DD7" stroke="#616DD7"/>
<rect width="5" height="5" transform="matrix(-1 0 0 1 265 90)" fill="#F5DEB1" stroke="#F5DEB1"/>
<rect width="5" height="5" transform="matrix(-1 0 0 1 270 80)" fill="#F5DEB1" stroke="#F5DEB1"/>
<rect width="5" height="5" transform="matrix(-1 0 0 1 270 85)" fill="#F5DEB1" stroke="#F5DEB1"/>
<rect width="5" height="5" transform="matrix(-1 0 0 1 225 90)" fill="#F5DEB1" stroke="#F5DEB1"/>
<rect width="5" height="5" transform="matrix(-1 0 0 1 235 90)" fill="#F5DEB1" stroke="#F5DEB1"/>
<rect width="5" height="5" transform="matrix(-1 0 0 1 240 90)" fill="#F5DEB1" stroke="#F5DEB1"/>
<rect width="5" height="5" transform="matrix(-1 0 0 1 245 90)" fill="#F5DEB1" stroke="#F5DEB1"/>
<rect width="5" height="5" transform="matrix(-1 0 0 1 250 90)" fill="#F5DEB1" stroke="#F5DEB1"/>
<rect width="5" height="5" transform="matrix(-1 0 0 1 265 115)" fill="#822102" stroke="#822102"/>
<rect width="5" height="5" transform="matrix(-1 0 0 1 270 110)" fill="#822102" stroke="#822102"/>
<rect width="5" height="5" transform="matrix(-1 0 0 1 275 105)" fill="#822102" stroke="#822102"/>
<rect width="5" height="5" transform="matrix(-1 0 0 1 275 100)" fill="#822102" stroke="#822102"/>
<rect width="5" height="5" transform="matrix(-1 0 0 1 270 95)" fill="#822102" stroke="#822102"/>
<rect width="5" height="5" transform="matrix(-1 0 0 1 275 90)" fill="#822102" stroke="#822102"/>
<rect width="5" height="5" transform="matrix(-1 0 0 1 275 85)" fill="#822102" stroke="#822102"/>
<rect width="5" height="5" transform="matrix(-1 0 0 1 275 80)" fill="#822102" stroke="#822102"/>
<rect width="5" height="5" transform="matrix(-1 0 0 1 270 75)" fill="#822102" stroke="#822102"/>
<rect width="5" height="5" transform="matrix(-1 0 0 1 265 75)" fill="#822102" stroke="#822102"/>
<rect width="5" height="5" transform="matrix(-1 0 0 1 260 70)" fill="#822102" stroke="#822102"/>
<rect width="5" height="5" transform="matrix(-1 0 0 1 255 70)" fill="#822102" stroke="#822102"/>
<rect width="5" height="5" transform="matrix(-1 0 0 1 250 70)" fill="#822102" stroke="#822102"/>
<rect width="5" height="5" transform="matrix(-1 0 0 1 245 70)" fill="#822102" stroke="#822102"/>
<rect width="5" height="5" transform="matrix(-1 0 0 1 240 70)" fill="#822102" stroke="#822102"/>
<rect width="5" height="5" transform="matrix(-1 0 0 1 235 70)" fill="#822102" stroke="#822102"/>
<rect width="5" height="5" transform="matrix(-1 0 0 1 230 70)" fill="#822102" stroke="#822102"/>
<rect width="5" height="5" transform="matrix(-1 0 0 1 245 120)" fill="#822102" stroke="#822102"/>
<rect width="5" height="5" transform="matrix(-1 0 0 1 250 120)" fill="#822102" stroke="#822102"/>
<rect width="5" height="5" transform="matrix(-1 0 0 1 255 120)" fill="#822102" stroke="#822102"/>
<rect width="5" height="5" transform="matrix(-1 0 0 1 260 120)" fill="#822102" stroke="#822102"/>
<rect width="5" height="5" transform="matrix(-1 0 0 1 240 115)" fill="#822102" stroke="#822102"/>
<rect width="5" height="5" transform="matrix(-1 0 0 1 235 115)" fill="#822102" stroke="#822102"/>
<rect width="5" height="5" transform="matrix(-1 0 0 1 230 115)" fill="#822102" stroke="#822102"/>
<rect width="5" height="5" transform="matrix(-1 0 0 1 225 115)" fill="#822102" stroke="#822102"/>
<rect width="5" height="5" transform="matrix(-1 0 0 1 225 75)" fill="#822102" stroke="#822102"/>
<rect width="5" height="5" transform="matrix(-1 0 0 1 220 80)" fill="#822102" stroke="#822102"/>
<rect width="5" height="5" transform="matrix(-1 0 0 1 215 85)" fill="#822102" stroke="#822102"/>
<rect width="5" height="5" transform="matrix(-1 0 0 1 215 90)" fill="#822102" stroke="#822102"/>
<rect width="5" height="5" transform="matrix(-1 0 0 1 210 95)" fill="#822102" stroke="#822102"/>
<rect width="5" height="5" transform="matrix(-1 0 0 1 215 105)" fill="#822102" stroke="#822102"/>
<rect width="5" height="5" transform="matrix(-1 0 0 1 210 100)" fill="#822102" stroke="#822102"/>
<rect width="5" height="5" transform="matrix(-1 0 0 1 220 110)" fill="#822102" stroke="#822102"/>
</svg>
