<svg width="300" height="300" viewBox="0 0 300 300" fill="none" xmlns="http://www.w3.org/2000/svg">
<rect width="5" height="5" transform="matrix(-1 0 0 1 220 110)" fill="#3DA649" stroke="#3DA649"/>
<rect width="5" height="5" transform="matrix(-1 0 0 1 220 115)" fill="#822102" stroke="#822102"/>
<rect width="5" height="5" transform="matrix(-1 0 0 1 225 115)" fill="#822102" stroke="#822102"/>
<rect width="5" height="5" transform="matrix(-1 0 0 1 230 115)" fill="#822102" stroke="#822102"/>
<rect width="5" height="5" transform="matrix(-1 0 0 1 235 115)" fill="#822102" stroke="#822102"/>
<rect width="5" height="5" transform="matrix(-1 0 0 1 265 115)" fill="#822102" stroke="#822102"/>
<rect width="5" height="5" transform="matrix(-1 0 0 1 270 115)" fill="#822102" stroke="#822102"/>
<rect width="5" height="5" transform="matrix(-1 0 0 1 275 115)" fill="#822102" stroke="#822102"/>
<rect width="5" height="5" transform="matrix(-1 0 0 1 280 115)" fill="#822102" stroke="#822102"/>
<rect width="5" height="5" transform="matrix(-1 0 0 1 285 110)" fill="#822102" stroke="#822102"/>
<rect width="5" height="5" transform="matrix(-1 0 0 1 285 105)" fill="#822102" stroke="#822102"/>
<rect width="5" height="5" transform="matrix(-1 0 0 1 280 100)" fill="#822102" stroke="#822102"/>
<rect width="5" height="5" transform="matrix(-1 0 0 1 280 95)" fill="#822102" stroke="#822102"/>
<rect width="5" height="5" transform="matrix(-1 0 0 1 270 85)" fill="#822102" stroke="#822102"/>
<rect width="5" height="5" transform="matrix(-1 0 0 1 270 80)" fill="#822102" stroke="#822102"/>
<rect width="5" height="5" transform="matrix(-1 0 0 1 230 85)" fill="#822102" stroke="#822102"/>
<rect width="5" height="5" transform="matrix(-1 0 0 1 230 80)" fill="#822102" stroke="#822102"/>
<rect width="5" height="5" transform="matrix(-1 0 0 1 220 100)" fill="#822102" stroke="#822102"/>
<rect width="5" height="5" transform="matrix(-1 0 0 1 220 95)" fill="#822102" stroke="#822102"/>
<rect width="5" height="5" transform="matrix(-1 0 0 1 225 90)" fill="#822102" stroke="#822102"/>
<rect width="5" height="5" transform="matrix(-1 0 0 1 235 75)" fill="#822102" stroke="#822102"/>
<rect width="5" height="5" transform="matrix(-1 0 0 1 240 70)" fill="#822102" stroke="#822102"/>
<rect width="5" height="5" transform="matrix(-1 0 0 1 245 65)" fill="#822102" stroke="#822102"/>
<rect width="5" height="5" transform="matrix(-1 0 0 1 250 60)" fill="#822102" stroke="#822102"/>
<rect width="5" height="5" transform="matrix(-1 0 0 1 255 65)" fill="#822102" stroke="#822102"/>
<rect width="5" height="5" transform="matrix(-1 0 0 1 260 70)" fill="#822102" stroke="#822102"/>
<rect width="5" height="5" transform="matrix(-1 0 0 1 265 75)" fill="#822102" stroke="#822102"/>
<rect width="5" height="5" transform="matrix(-1 0 0 1 275 90)" fill="#822102" stroke="#822102"/>
<rect width="5" height="5" transform="matrix(-1 0 0 1 240 115)" fill="#822102" stroke="#822102"/>
<rect width="5" height="5" transform="matrix(-1 0 0 1 245 115)" fill="#822102" stroke="#822102"/>
<rect width="5" height="5" transform="matrix(-1 0 0 1 250 115)" fill="#822102" stroke="#822102"/>
<rect width="5" height="5" transform="matrix(-1 0 0 1 255 115)" fill="#822102" stroke="#822102"/>
<rect width="5" height="5" transform="matrix(-1 0 0 1 260 115)" fill="#822102" stroke="#822102"/>
<rect width="5" height="5" transform="matrix(-1 0 0 1 215 110)" fill="#822102" stroke="#822102"/>
<rect width="5" height="5" transform="matrix(-1 0 0 1 215 105)" fill="#822102" stroke="#822102"/>
<rect width="5" height="5" transform="matrix(-1 0 0 1 220 105)" fill="#3DA649" stroke="#3DA649"/>
<rect width="5" height="5" transform="matrix(-1 0 0 1 225 100)" fill="#3DA649" stroke="#3DA649"/>
<rect width="5" height="5" transform="matrix(-1 0 0 1 225 95)" fill="#3DA649" stroke="#3DA649"/>
<rect width="5" height="5" transform="matrix(-1 0 0 1 230 90)" fill="#3DA649" stroke="#3DA649"/>
<rect width="5" height="5" transform="matrix(-1 0 0 1 235 85)" fill="#3DA649" stroke="#3DA649"/>
<rect width="5" height="5" transform="matrix(-1 0 0 1 240 80)" fill="#3DA649" stroke="#3DA649"/>
<rect width="5" height="5" transform="matrix(-1 0 0 1 235 80)" fill="#3DA649" stroke="#3DA649"/>
<rect width="5" height="5" transform="matrix(-1 0 0 1 265 80)" fill="#3DA649" stroke="#3DA649"/>
<rect width="5" height="5" transform="matrix(-1 0 0 1 240 75)" fill="#3DA649" stroke="#3DA649"/>
<rect width="5" height="5" transform="matrix(-1 0 0 1 245 70)" fill="#3DA649" stroke="#3DA649"/>
<rect width="5" height="5" transform="matrix(-1 0 0 1 250 65)" fill="#3DA649" stroke="#3DA649"/>
<rect width="5" height="5" transform="matrix(-1 0 0 1 230 110)" fill="#3DA649" stroke="#3DA649"/>
<rect width="5" height="5" transform="matrix(-1 0 0 1 235 110)" fill="#3DA649" stroke="#3DA649"/>
<rect width="5" height="5" transform="matrix(-1 0 0 1 245 105)" fill="#3DA649" stroke="#3DA649"/>
<rect width="5" height="5" transform="matrix(-1 0 0 1 240 100)" fill="#3DA649" stroke="#3DA649"/>
<rect width="5" height="5" transform="matrix(-1 0 0 1 245 90)" fill="#3DA649" stroke="#3DA649"/>
<rect width="5" height="5" transform="matrix(-1 0 0 1 250 85)" fill="#3DA649" stroke="#3DA649"/>
<rect width="5" height="5" transform="matrix(-1 0 0 1 255 90)" fill="#3DA649" stroke="#3DA649"/>
<rect width="5" height="5" transform="matrix(-1 0 0 1 255 95)" fill="#3DA649" stroke="#3DA649"/>
<rect width="5" height="5" transform="matrix(-1 0 0 1 250 90)" fill="#3DA649" stroke="#3DA649"/>
<rect width="5" height="5" transform="matrix(-1 0 0 1 245 95)" fill="#3DA649" stroke="#3DA649"/>
<rect width="5" height="5" transform="matrix(-1 0 0 1 245 100)" fill="#3DA649" stroke="#3DA649"/>
<rect width="5" height="5" transform="matrix(-1 0 0 1 265 110)" fill="#3DA649" stroke="#3DA649"/>
<rect width="5" height="5" transform="matrix(-1 0 0 1 260 105)" fill="#3DA649" stroke="#3DA649"/>
<rect width="5" height="5" transform="matrix(-1 0 0 1 255 110)" fill="#262D33" stroke="#262D33"/>
<rect width="5" height="5" transform="matrix(-1 0 0 1 260 110)" fill="#262D33" stroke="#262D33"/>
<rect width="5" height="5" transform="matrix(-1 0 0 1 250 110)" fill="#262D33" stroke="#262D33"/>
<rect width="5" height="5" transform="matrix(-1 0 0 1 250 80)" fill="#262D33" stroke="#262D33"/>
<rect width="5" height="5" transform="matrix(-1 0 0 1 255 80)" fill="#262D33" stroke="#262D33"/>
<rect width="5" height="5" transform="matrix(-1 0 0 1 245 80)" fill="#262D33" stroke="#262D33"/>
<rect width="5" height="5" transform="matrix(-1 0 0 1 250 105)" fill="#262D33" stroke="#262D33"/>
<rect width="5" height="5" transform="matrix(-1 0 0 1 250 100)" fill="#262D33" stroke="#262D33"/>
<rect width="5" height="5" transform="matrix(-1 0 0 1 255 100)" fill="#262D33" stroke="#262D33"/>
<rect width="5" height="5" transform="matrix(-1 0 0 1 260 100)" fill="#262D33" stroke="#262D33"/>
<rect width="5" height="5" transform="matrix(-1 0 0 1 260 95)" fill="#262D33" stroke="#262D33"/>
<rect width="5" height="5" transform="matrix(-1 0 0 1 260 90)" fill="#262D33" stroke="#262D33"/>
<rect width="5" height="5" transform="matrix(-1 0 0 1 240 95)" fill="#262D33" stroke="#262D33"/>
<rect width="5" height="5" transform="matrix(-1 0 0 1 240 90)" fill="#262D33" stroke="#262D33"/>
<rect width="5" height="5" transform="matrix(-1 0 0 1 235 100)" fill="#262D33" stroke="#262D33"/>
<rect width="5" height="5" transform="matrix(-1 0 0 1 235 95)" fill="#262D33" stroke="#262D33"/>
<rect width="5" height="5" transform="matrix(-1 0 0 1 260 85)" fill="#262D33" stroke="#262D33"/>
<rect width="5" height="5" transform="matrix(-1 0 0 1 255 85)" fill="#262D33" stroke="#262D33"/>
<rect width="5" height="5" transform="matrix(-1 0 0 1 245 85)" fill="#262D33" stroke="#262D33"/>
<rect width="5" height="5" transform="matrix(-1 0 0 1 240 85)" fill="#262D33" stroke="#262D33"/>
<rect width="5" height="5" transform="matrix(-1 0 0 1 240 105)" fill="#262D33" stroke="#262D33"/>
<rect width="5" height="5" transform="matrix(-1 0 0 1 235 105)" fill="#262D33" stroke="#262D33"/>
<rect width="5" height="5" transform="matrix(-1 0 0 1 245 110)" fill="#262D33" stroke="#262D33"/>
<rect width="5" height="5" transform="matrix(-1 0 0 1 240 110)" fill="#262D33" stroke="#262D33"/>
<rect width="5" height="5" transform="matrix(-1 0 0 1 255 105)" fill="#262D33" stroke="#262D33"/>
<rect width="5" height="5" transform="matrix(-1 0 0 1 265 105)" fill="#3DA649" stroke="#3DA649"/>
<rect width="5" height="5" transform="matrix(-1 0 0 1 265 100)" fill="#3DA649" stroke="#3DA649"/>
<rect width="5" height="5" transform="matrix(-1 0 0 1 270 95)" fill="#3DA649" stroke="#3DA649"/>
<rect width="5" height="5" transform="matrix(-1 0 0 1 265 95)" fill="#3DA649" stroke="#3DA649"/>
<rect width="5" height="5" transform="matrix(-1 0 0 1 265 90)" fill="#3DA649" stroke="#3DA649"/>
<rect width="5" height="5" transform="matrix(-1 0 0 1 270 100)" fill="#3DA649" stroke="#3DA649"/>
<rect width="5" height="5" transform="matrix(-1 0 0 1 270 105)" fill="#3DA649" stroke="#3DA649"/>
<rect width="5" height="5" transform="matrix(-1 0 0 1 275 105)" fill="#3DA649" stroke="#3DA649"/>
<rect width="5" height="5" transform="matrix(-1 0 0 1 250 95)" fill="#3DA649" stroke="#3DA649"/>
<rect width="5" height="5" transform="matrix(-1 0 0 1 250 70)" fill="#3DA649" stroke="#3DA649"/>
<rect width="5" height="5" transform="matrix(-1 0 0 1 245 75)" fill="#3DA649" stroke="#3DA649"/>
<rect width="5" height="5" transform="matrix(-1 0 0 1 235 90)" fill="#3DA649" stroke="#3DA649"/>
<rect width="5" height="5" transform="matrix(-1 0 0 1 230 95)" fill="#3DA649" stroke="#3DA649"/>
<rect width="5" height="5" transform="matrix(-1 0 0 1 230 100)" fill="#3DA649" stroke="#3DA649"/>
<rect width="5" height="5" transform="matrix(-1 0 0 1 230 105)" fill="#3DA649" stroke="#3DA649"/>
<rect width="5" height="5" transform="matrix(-1 0 0 1 225 105)" fill="#3DA649" stroke="#3DA649"/>
<rect width="5" height="5" transform="matrix(-1 0 0 1 250 75)" fill="#3DA649" stroke="#3DA649"/>
<rect width="5" height="5" transform="matrix(-1 0 0 1 255 75)" fill="#3DA649" stroke="#3DA649"/>
<rect width="5" height="5" transform="matrix(-1 0 0 1 225 110)" fill="#3DA649" stroke="#3DA649"/>
<rect x="275" y="110" width="5" height="5" fill="#3DA649" stroke="#3DA649"/>
<rect x="275" y="105" width="5" height="5" fill="#3DA649" stroke="#3DA649"/>
<rect x="270" y="100" width="5" height="5" fill="#3DA649" stroke="#3DA649"/>
<rect x="270" y="95" width="5" height="5" fill="#3DA649" stroke="#3DA649"/>
<rect x="265" y="90" width="5" height="5" fill="#3DA649" stroke="#3DA649"/>
<rect x="260" y="85" width="5" height="5" fill="#3DA649" stroke="#3DA649"/>
<rect x="255" y="80" width="5" height="5" fill="#3DA649" stroke="#3DA649"/>
<rect x="255" y="75" width="5" height="5" fill="#3DA649" stroke="#3DA649"/>
<rect x="250" y="70" width="5" height="5" fill="#3DA649" stroke="#3DA649"/>
<rect x="265" y="110" width="5" height="5" fill="#3DA649" stroke="#3DA649"/>
<rect x="270" y="110" width="5" height="5" fill="#3DA649" stroke="#3DA649"/>
</svg>
