<svg width="300" height="300" viewBox="0 0 300 300" fill="none" xmlns="http://www.w3.org/2000/svg">
<rect width="5" height="5" transform="matrix(-1 0 0 1 225 50)" fill="#FCF6F8" stroke="#FCF6F8"/>
<rect width="5" height="5" transform="matrix(-1 0 0 1 225 55)" fill="#FCF6F8" stroke="#FCF6F8"/>
<rect width="5" height="5" transform="matrix(-1 0 0 1 225 60)" fill="#FCF6F8" stroke="#FCF6F8"/>
<rect width="5" height="5" transform="matrix(-1 0 0 1 230 60)" fill="#FCF6F8" stroke="#FCF6F8"/>
<rect width="5" height="5" transform="matrix(-1 0 0 1 235 60)" fill="#FCF6F8" stroke="#FCF6F8"/>
<rect width="5" height="5" transform="matrix(-1 0 0 1 240 60)" fill="#FCF6F8" stroke="#FCF6F8"/>
<rect width="5" height="5" transform="matrix(-1 0 0 1 245 60)" fill="#FCF6F8" stroke="#FCF6F8"/>
<rect width="5" height="5" transform="matrix(-1 0 0 1 250 60)" fill="#FCF6F8" stroke="#FCF6F8"/>
<rect width="5" height="5" transform="matrix(-1 0 0 1 255 60)" fill="#FCF6F8" stroke="#FCF6F8"/>
<rect width="5" height="5" transform="matrix(-1 0 0 1 260 60)" fill="#FCF6F8" stroke="#FCF6F8"/>
<rect width="5" height="5" transform="matrix(-1 0 0 1 265 60)" fill="#FCF6F8" stroke="#FCF6F8"/>
<rect width="5" height="5" transform="matrix(-1 0 0 1 230 55)" fill="#FCF6F8" stroke="#FCF6F8"/>
<rect width="5" height="5" transform="matrix(-1 0 0 1 235 55)" fill="#FCF6F8" stroke="#FCF6F8"/>
<rect width="5" height="5" transform="matrix(-1 0 0 1 240 55)" fill="#FCF6F8" stroke="#FCF6F8"/>
<rect width="5" height="5" transform="matrix(-1 0 0 1 245 55)" fill="#FCF6F8" stroke="#FCF6F8"/>
<rect width="5" height="5" transform="matrix(-1 0 0 1 250 55)" fill="#FCF6F8" stroke="#FCF6F8"/>
<rect width="5" height="5" transform="matrix(-1 0 0 1 255 55)" fill="#FCF6F8" stroke="#FCF6F8"/>
<rect width="5" height="5" transform="matrix(-1 0 0 1 260 55)" fill="#FCF6F8" stroke="#FCF6F8"/>
<rect width="5" height="5" transform="matrix(-1 0 0 1 265 55)" fill="#FCF6F8" stroke="#FCF6F8"/>
<rect width="5" height="5" transform="matrix(-1 0 0 1 230 50)" fill="#FCF6F8" stroke="#FCF6F8"/>
<rect width="5" height="5" transform="matrix(-1 0 0 1 235 50)" fill="#FCF6F8" stroke="#FCF6F8"/>
<rect width="5" height="5" transform="matrix(-1 0 0 1 240 50)" fill="#FCF6F8" stroke="#FCF6F8"/>
<rect width="5" height="5" transform="matrix(-1 0 0 1 245 50)" fill="#FCF6F8" stroke="#FCF6F8"/>
<rect width="5" height="5" transform="matrix(-1 0 0 1 250 50)" fill="#FCF6F8" stroke="#FCF6F8"/>
<rect width="5" height="5" transform="matrix(-1 0 0 1 255 50)" fill="#FCF6F8" stroke="#FCF6F8"/>
<rect width="5" height="5" transform="matrix(-1 0 0 1 260 50)" fill="#FCF6F8" stroke="#FCF6F8"/>
<rect width="5" height="5" transform="matrix(-1 0 0 1 265 50)" fill="#FCF6F8" stroke="#FCF6F8"/>
<rect width="5" height="5" transform="matrix(-1 0 0 1 225 65)" fill="#002F65" stroke="#002F65"/>
<rect width="5" height="5" transform="matrix(-1 0 0 1 225 70)" fill="#002F65" stroke="#002F65"/>
<rect width="5" height="5" transform="matrix(-1 0 0 1 225 75)" fill="#002F65" stroke="#002F65"/>
<rect width="5" height="5" transform="matrix(-1 0 0 1 230 75)" fill="#002F65" stroke="#002F65"/>
<rect width="5" height="5" transform="matrix(-1 0 0 1 235 75)" fill="#002F65" stroke="#002F65"/>
<rect width="5" height="5" transform="matrix(-1 0 0 1 240 75)" fill="#002F65" stroke="#002F65"/>
<rect width="5" height="5" transform="matrix(-1 0 0 1 245 75)" fill="#002F65" stroke="#002F65"/>
<rect width="5" height="5" transform="matrix(-1 0 0 1 250 75)" fill="#002F65" stroke="#002F65"/>
<rect width="5" height="5" transform="matrix(-1 0 0 1 255 75)" fill="#002F65" stroke="#002F65"/>
<rect width="5" height="5" transform="matrix(-1 0 0 1 260 75)" fill="#002F65" stroke="#002F65"/>
<rect width="5" height="5" transform="matrix(-1 0 0 1 230 80)" fill="#002F65" stroke="#002F65"/>
<rect width="5" height="5" transform="matrix(-1 0 0 1 235 80)" fill="#002F65" stroke="#002F65"/>
<rect width="5" height="5" transform="matrix(-1 0 0 1 240 80)" fill="#002F65" stroke="#002F65"/>
<rect width="5" height="5" transform="matrix(-1 0 0 1 245 80)" fill="#002F65" stroke="#002F65"/>
<rect width="5" height="5" transform="matrix(-1 0 0 1 250 80)" fill="#002F65" stroke="#002F65"/>
<rect width="5" height="5" transform="matrix(-1 0 0 1 255 80)" fill="#002F65" stroke="#002F65"/>
<rect width="5" height="5" transform="matrix(-1 0 0 1 235 85)" fill="#002F65" stroke="#002F65"/>
<rect width="5" height="5" transform="matrix(-1 0 0 1 240 85)" fill="#002F65" stroke="#002F65"/>
<rect width="5" height="5" transform="matrix(-1 0 0 1 245 85)" fill="#002F65" stroke="#002F65"/>
<rect width="5" height="5" transform="matrix(-1 0 0 1 250 85)" fill="#002F65" stroke="#002F65"/>
<rect width="5" height="5" transform="matrix(-1 0 0 1 255 85)" fill="#002F65" stroke="#002F65"/>
<rect width="5" height="5" transform="matrix(-1 0 0 1 235 90)" fill="#002F65" stroke="#002F65"/>
<rect width="5" height="5" transform="matrix(-1 0 0 1 240 90)" fill="#002F65" stroke="#002F65"/>
<rect width="5" height="5" transform="matrix(-1 0 0 1 245 90)" fill="#002F65" stroke="#002F65"/>
<rect width="5" height="5" transform="matrix(-1 0 0 1 250 90)" fill="#002F65" stroke="#002F65"/>
<rect width="5" height="5" transform="matrix(-1 0 0 1 240 95)" fill="#002F65" stroke="#002F65"/>
<rect width="5" height="5" transform="matrix(-1 0 0 1 245 95)" fill="#002F65" stroke="#002F65"/>
<rect width="5" height="5" transform="matrix(-1 0 0 1 245 104)" fill="#002F65" stroke="#002F65"/>
<rect width="5" height="5" transform="matrix(-1 0 0 1 250 95)" fill="#002F65" stroke="#002F65"/>
<rect width="5" height="5" transform="matrix(-1 0 0 1 240 100)" fill="#002F65" stroke="#002F65"/>
<rect width="5" height="5" transform="matrix(-1 0 0 1 245 100)" fill="#002F65" stroke="#002F65"/>
<rect width="5" height="5" transform="matrix(-1 0 0 1 250 100)" fill="#002F65" stroke="#002F65"/>
<rect width="5" height="5" transform="matrix(-1 0 0 1 255 90)" fill="#002F65" stroke="#002F65"/>
<rect width="5" height="5" transform="matrix(-1 0 0 1 235 95)" fill="#002F65" stroke="#002F65"/>
<rect width="5" height="5" transform="matrix(-1 0 0 1 255 95)" fill="#002F65" stroke="#002F65"/>
<rect width="5" height="5" transform="matrix(-1 0 0 1 260 80)" fill="#002F65" stroke="#002F65"/>
<rect width="5" height="5" transform="matrix(-1 0 0 1 230 85)" fill="#002F65" stroke="#002F65"/>
<rect width="5" height="5" transform="matrix(-1 0 0 1 260 85)" fill="#002F65" stroke="#002F65"/>
<rect width="5" height="5" transform="matrix(-1 0 0 1 230 90)" fill="#002F65" stroke="#002F65"/>
<rect width="5" height="5" transform="matrix(-1 0 0 1 260 90)" fill="#002F65" stroke="#002F65"/>
<rect width="5" height="5" transform="matrix(-1 0 0 1 265 75)" fill="#002F65" stroke="#002F65"/>
<rect width="5" height="5" transform="matrix(-1 0 0 1 225 80)" fill="#002F65" stroke="#002F65"/>
<rect width="5" height="5" transform="matrix(-1 0 0 1 265 80)" fill="#002F65" stroke="#002F65"/>
<rect width="5" height="5" transform="matrix(-1 0 0 1 225 85)" fill="#002F65" stroke="#002F65"/>
<rect width="5" height="5" transform="matrix(-1 0 0 1 265 85)" fill="#002F65" stroke="#002F65"/>
<rect width="5" height="5" transform="matrix(-1 0 0 1 230 70)" fill="#002F65" stroke="#002F65"/>
<rect width="5" height="5" transform="matrix(-1 0 0 1 235 70)" fill="#002F65" stroke="#002F65"/>
<rect width="5" height="5" transform="matrix(-1 0 0 1 240 70)" fill="#002F65" stroke="#002F65"/>
<rect width="5" height="5" transform="matrix(-1 0 0 1 245 70)" fill="#002F65" stroke="#002F65"/>
<rect width="5" height="5" transform="matrix(-1 0 0 1 250 70)" fill="#002F65" stroke="#002F65"/>
<rect width="5" height="5" transform="matrix(-1 0 0 1 255 70)" fill="#002F65" stroke="#002F65"/>
<rect width="5" height="5" transform="matrix(-1 0 0 1 260 70)" fill="#002F65" stroke="#002F65"/>
<rect width="5" height="5" transform="matrix(-1 0 0 1 265 70)" fill="#002F65" stroke="#002F65"/>
<rect width="5" height="5" transform="matrix(-1 0 0 1 230 65)" fill="#002F65" stroke="#002F65"/>
<rect width="5" height="5" transform="matrix(-1 0 0 1 235 65)" fill="#002F65" stroke="#002F65"/>
<rect width="5" height="5" transform="matrix(-1 0 0 1 240 65)" fill="#002F65" stroke="#002F65"/>
<rect width="5" height="5" transform="matrix(-1 0 0 1 245 65)" fill="#002F65" stroke="#002F65"/>
<rect width="5" height="5" transform="matrix(-1 0 0 1 250 65)" fill="#002F65" stroke="#002F65"/>
<rect width="5" height="5" transform="matrix(-1 0 0 1 255 65)" fill="#002F65" stroke="#002F65"/>
<rect width="5" height="5" transform="matrix(-1 0 0 1 260 65)" fill="#002F65" stroke="#002F65"/>
<rect width="5" height="5" transform="matrix(-1 0 0 1 265 65)" fill="#002F65" stroke="#002F65"/>
<rect width="5" height="5" transform="matrix(-1 0 0 1 235 85)" fill="#FCF6F8" stroke="#FCF6F8"/>
<rect width="5" height="5" transform="matrix(-1 0 0 1 250 90)" fill="#FCF6F8" stroke="#FCF6F8"/>
<rect width="5" height="5" transform="matrix(-1 0 0 1 245 90)" fill="#FCF6F8" stroke="#FCF6F8"/>
<rect width="5" height="5" transform="matrix(-1 0 0 1 240 90)" fill="#FCF6F8" stroke="#FCF6F8"/>
<rect width="5" height="5" transform="matrix(-1 0 0 1 250 95)" fill="#FCF6F8" stroke="#FCF6F8"/>
<rect width="5" height="5" transform="matrix(-1 0 0 1 255 90)" fill="#FCF6F8" stroke="#FCF6F8"/>
<rect width="5" height="5" transform="matrix(-1 0 0 1 229 75)" fill="#FCF6F8" stroke="#FCF6F8"/>
<rect width="5" height="5" transform="matrix(-1 0 0 1 234 75)" fill="#FCF6F8" stroke="#FCF6F8"/>
<rect width="5" height="5" transform="matrix(-1 0 0 1 239 75)" fill="#FCF6F8" stroke="#FCF6F8"/>
<rect width="5" height="5" transform="matrix(-1 0 0 1 239 70)" fill="#FCF6F8" stroke="#FCF6F8"/>
<rect width="5" height="5" transform="matrix(-1 0 0 1 229 70)" fill="#FCF6F8" stroke="#FCF6F8"/>
<rect width="5" height="5" transform="matrix(-1 0 0 1 234 70)" fill="#FCF6F8" stroke="#FCF6F8"/>
<rect width="5" height="5" transform="matrix(-1 0 0 1 250 75)" fill="#FCF6F8" stroke="#FCF6F8"/>
<rect width="5" height="5" transform="matrix(-1 0 0 1 255 75)" fill="#FCF6F8" stroke="#FCF6F8"/>
<rect width="5" height="5" transform="matrix(-1 0 0 1 260 75)" fill="#FCF6F8" stroke="#FCF6F8"/>
<rect width="5" height="5" transform="matrix(-1 0 0 1 260 70)" fill="#FCF6F8" stroke="#FCF6F8"/>
<rect width="5" height="5" transform="matrix(-1 0 0 1 250 70)" fill="#FCF6F8" stroke="#FCF6F8"/>
<rect width="5" height="5" transform="matrix(-1 0 0 1 255 70)" fill="#FCF6F8" stroke="#FCF6F8"/>
<rect width="5" height="5" transform="matrix(-1 0 0 1 240 85)" fill="#FCF6F8" stroke="#FCF6F8"/>
<rect width="5" height="5" transform="matrix(-1 0 0 1 245 85)" fill="#FCF6F8" stroke="#FCF6F8"/>
<rect width="5" height="5" transform="matrix(-1 0 0 1 225 95)" fill="#FCF6F8" stroke="#FCF6F8"/>
<rect width="5" height="5" transform="matrix(-1 0 0 1 230 105)" fill="#FCF6F8" stroke="#FCF6F8"/>
<rect width="5" height="5" transform="matrix(-1 0 0 1 235 105)" fill="#FCF6F8" stroke="#FCF6F8"/>
<rect width="5" height="5" transform="matrix(-1 0 0 1 240 110)" fill="#FCF6F8" stroke="#FCF6F8"/>
<rect width="5" height="5" transform="matrix(-1 0 0 1 240 115)" fill="#FCF6F8" stroke="#FCF6F8"/>
<rect width="5" height="5" transform="matrix(-1 0 0 1 235 115)" fill="#FCF6F8" stroke="#FCF6F8"/>
<rect width="5" height="5" transform="matrix(-1 0 0 1 245 115)" fill="#FCF6F8" stroke="#FCF6F8"/>
<rect width="5" height="5" transform="matrix(-1 0 0 1 250 115)" fill="#FCF6F8" stroke="#FCF6F8"/>
<rect width="5" height="5" transform="matrix(-1 0 0 1 255 115)" fill="#FCF6F8" stroke="#FCF6F8"/>
<rect width="5" height="5" transform="matrix(-1 0 0 1 245 40)" fill="#FCF6F8" stroke="#FCF6F8"/>
<rect width="5" height="5" transform="matrix(-1 0 0 1 235 40)" fill="#FCF6F8" stroke="#FCF6F8"/>
<rect width="5" height="5" transform="matrix(-1 0 0 1 255 40)" fill="#FCF6F8" stroke="#FCF6F8"/>
<rect width="5" height="5" transform="matrix(-1 0 0 1 245 35)" fill="#FCF6F8" stroke="#FCF6F8"/>
<rect width="5" height="5" transform="matrix(-1 0 0 1 245 30)" fill="#FCF6F8" stroke="#FCF6F8"/>
<rect width="5" height="5" transform="matrix(-1 0 0 1 245 25)" fill="#FCF6F8" stroke="#FCF6F8"/>
<rect width="5" height="5" transform="matrix(-1 0 0 1 245 20)" fill="#FCF6F8" stroke="#FCF6F8"/>
<rect width="5" height="5" transform="matrix(-1 0 0 1 245 15)" fill="#FCF6F8" stroke="#FCF6F8"/>
<rect width="5" height="5" transform="matrix(-1 0 0 1 240 15)" fill="#FCF6F8" stroke="#FCF6F8"/>
<rect width="5" height="5" transform="matrix(-1 0 0 1 250 15)" fill="#FCF6F8" stroke="#FCF6F8"/>
<rect width="5" height="5" transform="matrix(-1 0 0 1 255 20)" fill="#FCF6F8" stroke="#FCF6F8"/>
<rect width="5" height="5" transform="matrix(-1 0 0 1 260 25)" fill="#FCF6F8" stroke="#FCF6F8"/>
<rect width="5" height="5" transform="matrix(-1 0 0 1 255 30)" fill="#FCF6F8" stroke="#FCF6F8"/>
<rect width="5" height="5" transform="matrix(-1 0 0 1 250 25)" fill="#FCF6F8" stroke="#FCF6F8"/>
<rect width="5" height="5" transform="matrix(-1 0 0 1 250 20)" fill="#FCF6F8" stroke="#FCF6F8"/>
<rect width="5" height="5" transform="matrix(-1 0 0 1 255 25)" fill="#FCF6F8" stroke="#FCF6F8"/>
<rect x="230" y="20" width="5" height="5" fill="#FCF6F8" stroke="#FCF6F8"/>
<rect x="225" y="25" width="5" height="5" fill="#FCF6F8" stroke="#FCF6F8"/>
<rect x="230" y="30" width="5" height="5" fill="#FCF6F8" stroke="#FCF6F8"/>
<rect x="235" y="25" width="5" height="5" fill="#FCF6F8" stroke="#FCF6F8"/>
<rect x="235" y="20" width="5" height="5" fill="#FCF6F8" stroke="#FCF6F8"/>
<rect x="230" y="25" width="5" height="5" fill="#FCF6F8" stroke="#FCF6F8"/>
<rect width="5" height="5" transform="matrix(-1 0 0 1 250 110)" fill="#FCF6F8" stroke="#FCF6F8"/>
<rect width="5" height="5" transform="matrix(-1 0 0 1 225 100)" fill="#FCF6F8" stroke="#FCF6F8"/>
<rect x="260" y="95" width="5" height="5" fill="#FCF6F8" stroke="#FCF6F8"/>
<rect x="255" y="105" width="5" height="5" fill="#FCF6F8" stroke="#FCF6F8"/>
<rect x="250" y="105" width="5" height="5" fill="#FCF6F8" stroke="#FCF6F8"/>
<rect x="260" y="100" width="5" height="5" fill="#FCF6F8" stroke="#FCF6F8"/>
<rect width="5" height="5" transform="matrix(-1 0 0 1 250 85)" fill="#FCF6F8" stroke="#FCF6F8"/>
<rect width="5" height="5" transform="matrix(-1 0 0 1 250 85)" fill="#FCF6F8" stroke="#FCF6F8"/>
<rect width="5" height="5" transform="matrix(-1 0 0 1 245 55)" fill="#002F65" stroke="#002F65"/>
<rect width="5" height="5" transform="matrix(-1 0 0 1 240 40)" fill="#002F65" stroke="#002F65"/>
<rect width="5" height="5" transform="matrix(-1 0 0 1 250 55)" fill="#002F65" stroke="#002F65"/>
<rect width="5" height="5" transform="matrix(-1 0 0 1 250 40)" fill="#002F65" stroke="#002F65"/>
<rect width="5" height="5" transform="matrix(-1 0 0 1 240 55)" fill="#002F65" stroke="#002F65"/>
<rect width="5" height="5" transform="matrix(-1 0 0 1 230 95)" fill="#822102" stroke="#822102"/>
<rect width="5" height="5" transform="matrix(-1 0 0 1 230 100)" fill="#822102" stroke="#822102"/>
<rect width="5" height="5" transform="matrix(-1 0 0 1 235 100)" fill="#822102" stroke="#822102"/>
<rect width="5" height="5" transform="matrix(-1 0 0 1 240 105)" fill="#822102" stroke="#822102"/>
<rect width="5" height="5" transform="matrix(-1 0 0 1 245 110)" fill="#822102" stroke="#822102"/>
<rect width="5" height="5" transform="matrix(-1 0 0 1 235 110)" fill="#822102" stroke="#822102"/>
<rect width="5" height="5" transform="matrix(-1 0 0 1 230 110)" fill="#822102" stroke="#822102"/>
<rect width="5" height="5" transform="matrix(-1 0 0 1 220 100)" fill="#822102" stroke="#822102"/>
<rect width="5" height="5" transform="matrix(-1 0 0 1 220 95)" fill="#822102" stroke="#822102"/>
<rect width="5" height="5" transform="matrix(-1 0 0 1 220 85)" fill="#822102" stroke="#822102"/>
<rect width="5" height="5" transform="matrix(-1 0 0 1 220 80)" fill="#822102" stroke="#822102"/>
<rect width="5" height="5" transform="matrix(-1 0 0 1 220 75)" fill="#822102" stroke="#822102"/>
<rect width="5" height="5" transform="matrix(-1 0 0 1 220 70)" fill="#822102" stroke="#822102"/>
<rect width="5" height="5" transform="matrix(-1 0 0 1 220 65)" fill="#822102" stroke="#822102"/>
<rect width="5" height="5" transform="matrix(-1 0 0 1 220 60)" fill="#822102" stroke="#822102"/>
<rect width="5" height="5" transform="matrix(-1 0 0 1 220 55)" fill="#822102" stroke="#822102"/>
<rect width="5" height="5" transform="matrix(-1 0 0 1 220 50)" fill="#822102" stroke="#822102"/>
<rect width="5" height="5" transform="matrix(-1 0 0 1 225 45)" fill="#822102" stroke="#822102"/>
<rect width="5" height="5" transform="matrix(-1 0 0 1 230 45)" fill="#822102" stroke="#822102"/>
<rect width="5" height="5" transform="matrix(-1 0 0 1 235 45)" fill="#822102" stroke="#822102"/>
<rect width="5" height="5" transform="matrix(-1 0 0 1 240 45)" fill="#822102" stroke="#822102"/>
<rect width="5" height="5" transform="matrix(-1 0 0 1 230 40)" fill="#822102" stroke="#822102"/>
<rect width="5" height="5" transform="matrix(-1 0 0 1 240 35)" fill="#822102" stroke="#822102"/>
<rect width="5" height="5" transform="matrix(-1 0 0 1 240 30)" fill="#822102" stroke="#822102"/>
<rect width="5" height="5" transform="matrix(-1 0 0 1 230 30)" fill="#822102" stroke="#822102"/>
<rect width="5" height="5" transform="matrix(-1 0 0 1 225 25)" fill="#822102" stroke="#822102"/>
<rect width="5" height="5" transform="matrix(-1 0 0 1 230 20)" fill="#822102" stroke="#822102"/>
<rect width="5" height="5" transform="matrix(-1 0 0 1 235 15)" fill="#822102" stroke="#822102"/>
<rect width="5" height="5" transform="matrix(-1 0 0 1 240 10)" fill="#822102" stroke="#822102"/>
<rect width="5" height="5" transform="matrix(-1 0 0 1 245 10)" fill="#822102" stroke="#822102"/>
<rect width="5" height="5" transform="matrix(-1 0 0 1 235 35)" fill="#822102" stroke="#822102"/>
<rect width="5" height="5" transform="matrix(-1 0 0 1 245 45)" fill="#822102" stroke="#822102"/>
<rect width="5" height="5" transform="matrix(-1 0 0 1 225 90)" fill="#822102" stroke="#822102"/>
<rect width="5" height="5" transform="matrix(-1 0 0 1 230 115)" fill="#822102" stroke="#822102"/>
<rect width="5" height="5" transform="matrix(-1 0 0 1 235 120)" fill="#822102" stroke="#822102"/>
<rect width="5" height="5" transform="matrix(-1 0 0 1 240 120)" fill="#822102" stroke="#822102"/>
<rect width="5" height="5" transform="matrix(-1 0 0 1 245 120)" fill="#822102" stroke="#822102"/>
<rect width="5" height="5" transform="matrix(-1 0 0 1 225 105)" fill="#822102" stroke="#822102"/>
<rect x="255" y="95" width="5" height="5" fill="#822102" stroke="#822102"/>
<rect x="255" y="100" width="5" height="5" fill="#822102" stroke="#822102"/>
<rect x="250" y="100" width="5" height="5" fill="#822102" stroke="#822102"/>
<rect x="245" y="105" width="5" height="5" fill="#822102" stroke="#822102"/>
<rect x="250" y="110" width="5" height="5" fill="#822102" stroke="#822102"/>
<rect x="255" y="110" width="5" height="5" fill="#822102" stroke="#822102"/>
<rect x="265" y="100" width="5" height="5" fill="#822102" stroke="#822102"/>
<rect x="265" y="95" width="5" height="5" fill="#822102" stroke="#822102"/>
<rect x="265" y="85" width="5" height="5" fill="#822102" stroke="#822102"/>
<rect x="265" y="80" width="5" height="5" fill="#822102" stroke="#822102"/>
<rect x="265" y="75" width="5" height="5" fill="#822102" stroke="#822102"/>
<rect x="265" y="70" width="5" height="5" fill="#822102" stroke="#822102"/>
<rect x="265" y="65" width="5" height="5" fill="#822102" stroke="#822102"/>
<rect x="265" y="60" width="5" height="5" fill="#822102" stroke="#822102"/>
<rect x="265" y="55" width="5" height="5" fill="#822102" stroke="#822102"/>
<rect x="265" y="50" width="5" height="5" fill="#822102" stroke="#822102"/>
<rect x="260" y="45" width="5" height="5" fill="#822102" stroke="#822102"/>
<rect x="255" y="45" width="5" height="5" fill="#822102" stroke="#822102"/>
<rect x="250" y="45" width="5" height="5" fill="#822102" stroke="#822102"/>
<rect x="245" y="45" width="5" height="5" fill="#822102" stroke="#822102"/>
<rect x="255" y="40" width="5" height="5" fill="#822102" stroke="#822102"/>
<rect x="245" y="35" width="5" height="5" fill="#822102" stroke="#822102"/>
<rect x="245" y="30" width="5" height="5" fill="#822102" stroke="#822102"/>
<rect x="255" y="30" width="5" height="5" fill="#822102" stroke="#822102"/>
<rect x="260" y="25" width="5" height="5" fill="#822102" stroke="#822102"/>
<rect x="255" y="20" width="5" height="5" fill="#822102" stroke="#822102"/>
<rect x="250" y="15" width="5" height="5" fill="#822102" stroke="#822102"/>
<rect x="245" y="10" width="5" height="5" fill="#822102" stroke="#822102"/>
<rect x="250" y="35" width="5" height="5" fill="#822102" stroke="#822102"/>
<rect x="260" y="90" width="5" height="5" fill="#822102" stroke="#822102"/>
<rect x="255" y="115" width="5" height="5" fill="#822102" stroke="#822102"/>
<rect x="250" y="120" width="5" height="5" fill="#822102" stroke="#822102"/>
<rect x="245" y="120" width="5" height="5" fill="#822102" stroke="#822102"/>
<rect x="260" y="105" width="5" height="5" fill="#822102" stroke="#822102"/>
</svg>
