<svg width="300" height="300" viewBox="0 0 300 300" fill="none" xmlns="http://www.w3.org/2000/svg">
<rect x="241" y="110" width="5" height="5" fill="#F8981D" stroke="#F8981D" stroke-width="2"/>
<rect x="233" y="93" width="5" height="5" fill="#F8981D" stroke="#F8981D" stroke-width="2"/>
<rect x="257" y="93" width="5" height="5" fill="#F8981D" stroke="#F8981D" stroke-width="2"/>
<rect x="259" y="87" width="5" height="5" fill="#F8981D" stroke="#F8981D" stroke-width="2"/>
<rect x="261" y="81" width="5" height="5" fill="#F8981D" stroke="#F8981D" stroke-width="2"/>
<rect x="228" y="81" width="5" height="5" fill="#F8981D" stroke="#F8981D" stroke-width="2"/>
<rect x="264" y="75" width="5" height="5" fill="#F8981D" stroke="#F8981D" stroke-width="2"/>
<rect x="226" y="75" width="5" height="5" fill="#F8981D" stroke="#F8981D" stroke-width="2"/>
<rect x="266" y="69" width="5" height="5" fill="#F8981D" stroke="#F8981D" stroke-width="2"/>
<rect x="223" y="69" width="5" height="5" fill="#F8981D" stroke="#F8981D" stroke-width="2"/>
<rect x="231" y="87" width="5" height="5" fill="#F8981D" stroke="#F8981D" stroke-width="2"/>
<rect x="239" y="105" width="5" height="5" fill="#F8981D" stroke="#F8981D" stroke-width="2"/>
<rect x="251" y="105" width="5" height="5" fill="#F8981D" stroke="#F8981D" stroke-width="2"/>
<rect x="235" y="99" width="5" height="5" fill="#F8981D" stroke="#F8981D" stroke-width="2"/>
<rect x="255" y="99" width="5" height="5" fill="#F8981D" stroke="#F8981D" stroke-width="2"/>
<rect x="249" y="110" width="5" height="5" fill="#F8981D" stroke="#F8981D" stroke-width="2"/>
<rect x="245" y="115" width="5" height="5" fill="#F8981D" stroke="#F8981D" stroke-width="2"/>
<rect x="245" y="113" width="5" height="5" fill="#F8981D" stroke="#F8981D" stroke-width="2"/>
<rect x="245" y="110" width="5" height="5" fill="#F8981D" stroke="#F8981D" stroke-width="2"/>
<rect x="221" y="63" width="5" height="5" fill="#F8981D" stroke="#F8981D" stroke-width="2"/>
<rect x="269" y="63" width="5" height="5" fill="#F8981D" stroke="#F8981D" stroke-width="2"/>
<rect x="245" y="85" width="5" height="5" fill="#8B8C8E" stroke="#8B8C8E" stroke-width="2"/>
<rect x="241" y="80" width="5" height="5" fill="#8B8C8E" stroke="#8B8C8E" stroke-width="2"/>
<rect x="249" y="80" width="5" height="5" fill="#8B8C8E" stroke="#8B8C8E" stroke-width="2"/>
<rect x="238" y="74" width="5" height="5" fill="#8B8C8E" stroke="#8B8C8E" stroke-width="2"/>
<rect x="252" y="74" width="5" height="5" fill="#8B8C8E" stroke="#8B8C8E" stroke-width="2"/>
<rect x="235" y="68" width="5" height="5" fill="#8B8C8E" stroke="#8B8C8E" stroke-width="2"/>
<rect x="233" y="63" width="5" height="5" fill="#8B8C8E" stroke="#8B8C8E" stroke-width="2"/>
<rect x="257" y="63" width="5" height="5" fill="#8B8C8E" stroke="#8B8C8E" stroke-width="2"/>
<rect x="255" y="68" width="5" height="5" fill="#8B8C8E" stroke="#8B8C8E" stroke-width="2"/>
<rect x="237" y="63" width="5" height="5" fill="#8B8C8E" stroke="#8B8C8E" stroke-width="2"/>
<rect x="243" y="63" width="5" height="5" fill="#8B8C8E" stroke="#8B8C8E" stroke-width="2"/>
<rect x="249" y="63" width="5" height="5" fill="#8B8C8E" stroke="#8B8C8E" stroke-width="2"/>
<rect x="254" y="63" width="5" height="5" fill="#8B8C8E" stroke="#8B8C8E" stroke-width="2"/>
<rect x="245" y="80" width="5" height="5" fill="#8B8C8E" stroke="#8B8C8E" stroke-width="2"/>
<rect x="245" y="74" width="5" height="5" fill="#8B8C8E" stroke="#8B8C8E" stroke-width="2"/>
<rect x="245" y="69" width="5" height="5" fill="#8B8C8E" stroke="#8B8C8E" stroke-width="2"/>
<rect x="240" y="69" width="5" height="5" fill="#8B8C8E" stroke="#8B8C8E" stroke-width="2"/>
<rect x="250" y="69" width="5" height="5" fill="#8B8C8E" stroke="#8B8C8E" stroke-width="2"/>
<rect x="241" y="74" width="5" height="5" fill="#8B8C8E" stroke="#8B8C8E" stroke-width="2"/>
<rect x="250" y="74" width="5" height="5" fill="#8B8C8E" stroke="#8B8C8E" stroke-width="2"/>
</svg>
